<?xml version="1.0" encoding="UTF-8" standalone="no"?>
<!-- Created with Inkscape (http://www.inkscape.org/) -->

<svg
   version="1.1"
   id="svg1"
   width="1999.6155"
   height="786.09064"
   viewBox="0 0 1999.6155 786.09064"
   xmlns="http://www.w3.org/2000/svg"
   xmlns:svg="http://www.w3.org/2000/svg">
  <defs
     id="defs1" />
  <g
     id="g1"
     transform="translate(-162.31004,-829.15833)">
    <g
       id="g2"
       transform="translate(162.16216,828.82883)">
      <path
         style="fill:#fbb719"
         d="m 630,785.6094 c -7.97182,-1.77233 -13.01312,-4.74918 -18.84035,-11.1251 -12.29297,-13.45046 -11.79829,-33.96331 1.1411,-47.31849 16.79781,-17.33757 46.43971,-12.26442 56.47999,9.66644 6.94192,15.16316 2.04365,34.00033 -11.21288,43.12106 -8.35573,5.74889 -18.13019,7.75432 -27.56786,5.65609 z m -161.75911,-8.17665 c -10.21836,-5.09202 -15.725,-14.3691 -15.68981,-26.43275 0.0186,-6.38497 0.45773,-8.2967 2.95354,-12.8588 5.93339,-10.84564 15.13878,-15.74798 28.01871,-14.9214 10.87254,0.69776 18.41267,5.73158 23.63707,15.7802 3.4029,6.54516 3.34255,18.53656 -0.12749,25.32977 -2.8978,5.67295 -8.59499,11.11364 -14.3959,13.74775 -6.45873,2.93282 -17.81936,2.63257 -24.39612,-0.64477 z m -149.35582,-4.81237 c -5.91022,-2.11208 -9.5573,-5.32164 -12.29902,-10.82355 -3.56452,-7.15306 -3.49815,-13.82249 0.20817,-20.9172 10.66635,-20.41773 41.61541,-12.51944 41.61541,10.62037 0,15.67805 -14.9092,26.34334 -29.52456,21.12038 z M 915.41519,748.57859 C 910.86054,746.59549 908,742.43142 908,737.78432 908,732.96406 973.7355,370.28426 986.07941,307 c 2.64817,-13.57654 3.69748,-16.86504 8.45576,-26.5 15.44383,-31.27207 48.29903,-62.01164 76.39623,-71.47688 6.1476,-2.07099 7.5532,-2.1063 82.0013,-2.06009 l 75.7465,0.047 7.2763,2.4748 c 26.6758,9.07305 48.7404,28.85013 55.0808,49.37049 3.1713,10.26357 2.6097,19.21258 -3.5702,56.89845 -3.0436,18.56042 -7.1148,43.42121 -9.0469,55.24621 -1.9321,11.825 -7.0879,43.325 -11.4573,70 -4.3694,26.675 -8.2258,50.3 -8.5698,52.5 -1.6001,10.23435 -10.8872,30.24561 -20.188,43.5 -6.4588,9.20429 -21.2937,24.12086 -29.9183,30.08305 -8.3987,5.80601 -21.2635,12.06073 -29.2858,14.23846 -4.2405,1.15112 -20.2218,1.88616 -69.7864,3.20977 -35.3575,0.9442 -66.4565,1.42885 -69.1089,1.07699 -7.2753,-0.96509 -21.0919,-5.93804 -30.9732,-11.14805 -11.83794,-6.2416 -20.86789,-13.08878 -31.40591,-23.81424 -4.82593,-4.91177 -8.91183,-8.75397 -9.07977,-8.53823 -0.16794,0.21574 -2.86223,14.56725 -5.98731,31.89225 -24.53951,136.04359 -30.61316,168.28184 -32.14438,170.61878 -1.71487,2.61722 -7.0671,5.41159 -10.23201,5.34208 -0.98017,-0.0215 -3.17029,-0.64355 -4.86693,-1.38227 z M 1113,559.11024 c 58.422,-1.75091 59.5996,-1.82615 65,-4.15269 10.19,-4.38998 17.3859,-9.26265 26.1363,-17.69808 9.5327,-9.18955 16.5808,-18.71712 22.3557,-30.2203 5.6134,-11.18166 6.1554,-13.22299 10.4566,-39.38151 2.1847,-13.28671 6.0366,-36.75766 8.56,-52.15766 2.5233,-15.4 7.7213,-47.125 11.551,-70.5 3.8298,-23.375 7.9202,-48.27995 9.0898,-55.34432 1.8204,-10.99486 1.9546,-13.61299 0.932,-18.18258 -2.5832,-11.54305 -16.2479,-26.63758 -31.3345,-34.6133 L 1227.5,232.5 l -73.5989,-0.27474 -73.599,-0.27473 -8.901,4.47251 c -20.5123,10.30678 -43.2528,33.57778 -54.4513,55.72144 -4.4691,8.83698 -3.4036,3.52515 -31.50149,157.03962 -5.20289,28.42625 -9.54932,52.76571 -9.65873,54.08768 -0.11517,1.39154 1.74701,5.52459 4.42263,9.8159 13.62721,21.85611 33.22359,38.0233 54.50949,44.97074 10.3442,3.37619 3.7002,3.28692 78.2783,1.05182 z M 699.302,661.955 c -13.86638,-5.4846 -23.67906,-21.77784 -21.86415,-36.30384 2.51461,-20.12629 22.84724,-35.04122 41.76971,-30.64003 11.88202,2.76364 21.82303,11.14725 25.83461,21.78724 1.75294,4.64935 2.07637,7.27037 1.75243,14.20163 -0.34108,7.29828 -0.87182,9.38859 -3.75402,14.78522 -3.81541,7.14396 -7.82349,11.0402 -15.3275,14.89978 -7.22491,3.71604 -20.70362,4.31854 -28.41108,1.27 z M 546.88281,654.74287 C 520.21824,640.93948 530.00006,600.59557 560,600.64261 c 21.38471,0.0335 35.22298,21.7 26.13247,40.9154 C 581.02764,652.34854 571.84229,658 559.40923,658 c -5.08209,0 -7.3975,-0.60206 -12.52642,-3.25713 z m -305.36365,-4.28132 c -17.02686,-6.48719 -19.53187,-30.37648 -4.18047,-39.86753 5.54847,-3.43035 13.42667,-4.48662 19.21511,-2.57627 12.41172,4.09624 18.73741,19.58217 12.80062,31.33722 -5.02976,9.95911 -17.64027,14.99084 -27.83526,11.10658 z m 157.51246,0.28751 c -5.36378,-1.79955 -12.625,-9.42245 -14.04234,-14.74179 -3.94782,-14.81634 6.5477,-29.04871 21.37491,-28.98531 12.49814,0.0534 22.66721,10.38883 22.60827,22.97804 -0.0191,4.08459 -3.1524,11.48703 -6.28453,14.84732 -5.22973,5.6107 -16.29536,8.37134 -23.65631,5.90174 z M 121.51368,638.8321 C 112.16145,631.47564 116.71042,618 128.54597,618 c 4.70265,0 8.9979,3.08788 10.46073,7.52029 1.60603,4.86634 0.44059,8.8798 -3.61175,12.4378 -4.3074,3.78195 -9.74886,4.12456 -13.88127,0.87401 z M 1728.5,585.02105 c -14.7544,-2.21857 -34.091,-9.98574 -45.9793,-18.46905 -13.3766,-9.5453 -23.4666,-23.87783 -27.1405,-38.552 -2.1566,-8.61392 -1.402,-37.1785 1.5718,-59.5 5.2828,-39.65369 15.5081,-96.12399 28.5376,-157.6027 4.1002,-19.34648 5.0529,-22.4516 9.9397,-32.3973 7.5343,-15.33408 16.4842,-28.30617 27.3288,-39.6107 14.3011,-14.90751 27.6897,-23.31079 44.7419,-28.08186 7.9262,-2.2177 8.7337,-2.24142 87.5613,-2.57225 l 79.5613,-0.33391 8.5248,3.08463 c 16.359,5.91937 33.5245,17.58714 42.4433,28.84961 6.1074,7.71227 11.1173,18.15745 13.029,27.16448 3.1108,14.65618 -0.1718,55.57282 -9.2661,115.5 -2.8928,19.06172 -3.9873,22.2419 -8.6198,25.04394 -3.1105,1.88148 -6.1696,1.97964 -80.2338,2.57438 -42.35,0.34008 -106.761,0.95699 -143.1356,1.37091 l -66.1357,0.75258 -3.586,22.1291 c -6.2436,38.52783 -7.9704,53.87485 -8.0597,71.62909 -0.08,15.88905 0.016,16.71153 2.5946,22.21268 6.2655,13.36761 16.7209,21.53355 36.5349,28.53467 l 7.7875,2.75165 107.5,0.5005 c 103.4845,0.4818 107.6046,0.57142 110.3011,2.399 7.3936,5.01112 7.3213,16.22913 -0.1373,21.29294 -2.5243,1.71385 -8.1097,1.8157 -106.6638,1.945 -57.2,0.0751 -106.25,-0.20188 -109,-0.61539 z M 1867,385.17755 1963.5,384.5 1966.2111,366 c 6.16,-42.03452 9.538,-81.75287 7.8403,-92.18396 -2.3452,-14.40947 -13.4285,-26.66954 -32.4985,-35.94899 L 1933.6058,234 h -77.6214 c -68.49,0 -78.2604,0.18969 -83.0529,1.61244 -21.0005,6.23437 -40.1497,24.95081 -54.2479,53.02198 -4.1802,8.3233 -5.0882,11.58034 -10.5894,37.98475 -8.1821,39.27231 -11.9888,58.7423 -11.6061,59.362 0.1762,0.28535 16.901,0.37373 37.1662,0.19638 20.2651,-0.17735 80.2707,-0.62735 133.3457,-1 z m -573.5211,195.50132 c -5.8643,-5.86432 -5.3177,-15.11705 1.1431,-19.35109 2.6487,-1.73577 8.53,-1.85295 116.8335,-2.32778 l 114.0445,-0.5 8,-3.30356 c 13.5137,-5.58039 21.3038,-10.79141 31.6475,-21.16974 8.4943,-8.52272 10.2564,-10.92632 14.7407,-20.10738 7.2672,-14.87861 9.4442,-25.19691 9.4772,-44.91932 0.057,-34.03461 -9.6865,-55.13876 -30.0973,-65.18965 l -6.7225,-3.31035 -76.5228,-0.52006 c -84.6158,-0.57507 -79.4872,-0.17966 -93.5228,-7.21028 -15.6418,-7.83517 -26.4887,-18.75919 -34.0277,-34.26966 -7.525,-15.48162 -8.9847,-22.86468 -8.897,-45 0.069,-17.30315 0.3143,-19.89308 2.751,-29 9.5495,-35.69105 36.6565,-63.66308 74.9574,-77.34935 L 1427.5,203.5 l 102.4982,-0.26851 c 75.4201,-0.19758 103.2305,0.0348 105.2702,0.8797 7.8299,3.24323 10.4696,13.80183 4.9816,19.92612 -1.6441,1.83477 -4.3585,3.44006 -6.75,3.99192 -2.2972,0.53011 -46.2413,0.93321 -103.2272,0.94691 l -99.2271,0.0239 -6.3083,2.37442 c -21.1553,7.96284 -40.4294,23.24692 -50.013,39.65957 -9.8645,16.89371 -13.4026,44.12335 -8.2467,63.46601 5.2388,19.65313 18.274,33.56471 36.4538,38.90462 4.749,1.39492 14.4061,1.59538 76.8557,1.59538 59.962,0 72.3448,0.23857 77.161,1.48657 22.7516,5.89553 41.2274,22.78717 50.1058,45.80959 5.887,15.26546 7.2914,24.00671 7.343,45.70384 0.052,21.84381 -1.1002,29.44067 -6.9539,45.8513 -11.3645,31.86049 -39.4265,57.90794 -72.8087,67.58171 L 1525.7763,584 H 1411.2881 1296.8 Z M 626.29984,551.19856 c -10.00875,-3.5751 -17.11169,-10.1285 -21.5352,-19.86906 -1.69407,-3.73032 -2.20137,-6.76886 -2.22894,-13.35053 -0.0321,-7.65097 0.2999,-9.20273 3.25105,-15.19736 3.64041,-7.39473 9.4833,-13.21179 16.9969,-16.92178 3.92702,-1.93905 6.30626,-2.33139 14.21635,-2.34431 8.39377,-0.0137 10.16259,0.30986 15.19009,2.77872 6.46807,3.17628 15.01378,11.86211 16.95646,17.23448 l 1.26431,3.49641 35.01555,-0.26257 35.01556,-0.26256 29.72329,-50 C 786.51307,429 799.91363,406.1625 799.94428,405.75 799.97492,405.3375 718.17692,405 618.17094,405 H 436.34187 l -2.41394,5.25 c -3.37369,7.33733 -11.42974,15.03224 -18.63112,17.79592 -7.10642,2.72723 -18.62979,2.99186 -25.15698,0.57771 -14.33801,-5.30305 -24.32365,-21.02332 -22.77371,-35.85234 1.39351,-13.33242 10.35558,-25.26061 22.38722,-29.79662 8.17943,-3.08369 20.51216,-2.47551 28.03081,1.38232 6.31362,3.23954 12.3648,9.05449 15.19468,14.60152 L 435.04065,383 h 144.56301 c 82.22504,0 144.41927,-0.37742 144.22967,-0.87524 C 723.65,381.64338 709.775,360.04477 693,334.12786 l -30.5,-47.12165 -74.51392,-0.003 -74.51392,-0.003 -2.36703,4.98564 c -2.85641,6.01643 -10.45011,13.36122 -16.8879,16.33434 -3.79771,1.75387 -6.56904,2.17867 -14.21723,2.17927 -8.52772,6.7e-4 -10.09296,-0.2997 -15.29379,-2.93492 -7.05753,-3.57601 -12.99635,-9.81755 -16.5458,-17.38918 -2.22839,-4.75357 -2.66041,-7.05887 -2.66041,-14.19618 0,-7.5978 0.35318,-9.23843 3.25968,-15.14238 3.80012,-7.71914 9.23233,-13.01157 17.12031,-16.67977 8.06167,-3.74898 20.17835,-3.74898 28.24002,0 7.43373,3.45696 13.00352,8.63497 16.51297,15.35144 l 2.86702,5.48699 80.02608,0.002 80.02608,0.002 38.01519,58.75 38.0152,58.75 93.45873,0.5 93.45872,0.5 v 10.5 10.5 l -57.23175,0.5 -57.23176,0.5 -26.6763,45 c -14.67197,24.75 -31.05539,52.425 -36.40761,61.5 l -9.7313,16.5 -39.42318,0.26131 -39.42318,0.26131 -1.70798,3.8712 c -6.65824,15.09126 -26.89092,23.83281 -42.3671,18.30474 z M 318.5,546.08265 c -5.90541,-1.63361 -8.54852,-3.08619 -12.87906,-7.07793 -6.14206,-5.66156 -9.07002,-12.65187 -9.00746,-21.50472 0.0598,-8.45601 1.77396,-12.79527 7.51531,-19.0239 6.60139,-7.16166 10.76482,-8.94984 20.87121,-8.9641 7.55714,-0.0107 9.09153,0.31567 13.83272,2.94195 6.3399,3.51186 9.62067,7.16147 12.95147,14.40755 2.10048,4.56955 2.39564,6.41591 1.99825,12.5 -0.73207,11.20799 -6.44729,19.87739 -16.22407,24.61024 -4.98499,2.41319 -14.2543,3.43987 -19.05837,2.11091 z m 158,-1.6e-4 c -8.75487,-2.42139 -15.89223,-8.20628 -19.59029,-15.8781 -3.28634,-6.81768 -3.2945,-17.90705 -0.0181,-24.56269 2.88858,-5.86778 7.69356,-10.84794 13.38493,-13.87293 3.42247,-1.81905 5.83545,-2.24477 12.72344,-2.24477 9.05274,0 13.27345,1.46943 19.66252,6.84548 8.16918,6.87392 11.46585,21.01953 7.40487,31.77339 -2.37713,6.29486 -9.63498,13.94286 -15.59466,16.43297 -4.32229,1.80597 -13.96716,2.6145 -17.97273,1.50665 z m -316.27252,-8.19892 c -13.07652,-6.47275 -16.40294,-24.71152 -6.42443,-35.22515 9.9205,-10.45252 26.9226,-9.15583 34.88979,2.66091 7.82626,11.60772 3.5847,26.54093 -9.39318,33.07049 -4.64383,2.33644 -13.82139,2.09284 -19.07218,-0.50625 z M 48.658927,526.94635 c -3.856652,-3.03364 -5.251228,-8.59301 -3.316892,-13.22253 1.695112,-4.05697 6.749506,-7.71634 10.657965,-7.71634 3.908459,0 8.962853,3.65937 10.657965,7.71634 C 69.910488,521.5082 64.683572,529 56,529 c -3.257277,0 -5.54328,-0.6395 -7.341073,-2.05365 z M 236.5,423.65674 c -14.39252,-4.75168 -22.51513,-16.52507 -21.22405,-30.76339 1.831,-20.19253 23.2591,-31.96253 41.54993,-22.8225 26.23749,13.11103 18.52459,51.57959 -10.90492,54.38899 -3.22426,0.30779 -7.04185,-0.0176 -9.42096,-0.8031 z m -112.87523,-7.12585 c -8.34723,-2.97536 -14.56355,-11.98588 -14.60281,-21.1667 -0.0659,-15.41086 16.01289,-26.44163 30.48556,-20.91447 8.91043,3.40293 15.54971,14.53726 14.09458,23.63715 -2.33037,14.57334 -16.45531,23.26393 -29.97733,18.44402 z M 5.7625707,403.43461 C 0.5328102,400.59697 -1.4008515,393.60963 1.4942887,388.01104 3.6463479,383.84942 6.8240354,382 11.822506,382 c 3.644993,0 4.946428,0.56893 7.777494,3.4 2.831066,2.83107 3.4,4.1325 3.4,7.77749 0,4.99847 -1.849421,8.17616 -6.011044,10.32822 -3.624513,1.87431 -7.6884367,1.84857 -11.2263853,-0.0711 z M 314.69799,303.6168 C 302.97856,299.24934 295,288.04545 295,275.9559 c 0,-11.59183 9.14176,-23.88652 20.3621,-27.38485 19.57488,-6.10315 38.791,9.07619 37.38134,29.52853 -1.04982,15.23144 -11.87126,25.78751 -27.24344,26.57535 -4.42763,0.22693 -8.39717,-0.16192 -10.80201,-1.05813 z M 166.5,298.10215 c -14.69428,-3.75962 -21.56114,-18.73477 -14.75,-32.16665 3.9688,-7.82666 9.28177,-11.25891 18.20915,-11.76335 6.03968,-0.34127 7.49142,-0.0517 11.97415,2.38807 16.45402,8.95539 15.65252,31.44387 -1.4333,40.2156 -2.9082,1.49305 -10.52723,2.21486 -14,1.32633 z M 46.755662,286.30356 C 43.76768,284.38739 41,279.45646 41,276.04921 c 0,-2.97927 2.552956,-7.62268 5.216795,-9.48851 1.22552,-0.85838 4.19809,-1.5607 6.605711,-1.5607 3.644993,0 4.946428,0.56893 7.777494,3.4 2.877768,2.87777 3.4,4.10413 3.4,7.98422 0,6.40086 -3.781186,10.63936 -10.032441,11.24583 -3.147365,0.30535 -5.278529,-0.0866 -7.211897,-1.32649 z M 548.28604,187.60913 c -10.33543,-3.37694 -17.59582,-9.77942 -22.18493,-19.5635 -3.53356,-7.53363 -3.73314,-21.06763 -0.41678,-28.26286 3.04748,-6.61188 10.55247,-14.25883 17.18928,-17.51444 4.95088,-2.42859 6.76697,-2.75859 15.12639,-2.74862 7.91555,0.009 10.28661,0.39973 14.21635,2.34012 7.5136,3.70999 13.35649,9.52705 16.9969,16.92178 2.93618,5.96422 3.28675,7.58521 3.28675,15.19736 0,7.11718 -0.43415,9.44693 -2.63517,14.14104 -5.80539,12.38116 -16.84402,19.89713 -30.14498,20.5251 -4.35091,0.20541 -8.89435,-0.20625 -11.43381,-1.03598 z m 160.09664,0.50096 c -10.18215,-2.62357 -18.9195,-9.83663 -23.40548,-19.32222 -3.85328,-8.14775 -4.59375,-14.82445 -2.5383,-22.88726 4.32739,-16.97483 18.53521,-27.6273 35.58089,-26.67717 13.27381,0.73989 23.68164,7.41269 29.62322,18.99241 3.85783,7.51865 4.46601,19.85138 1.38232,28.03081 -4.74647,12.58991 -17.39468,21.71791 -30.98063,22.35821 -3.59958,0.16964 -7.94749,-0.053 -9.66202,-0.49478 z M 397.5,182.08249 c -9.04356,-2.50123 -16.02245,-8.32344 -19.60472,-16.35544 -2.85916,-6.41068 -3.08864,-17.14718 -0.49255,-23.04455 2.23112,-5.06826 9.03504,-12.33336 14.05232,-15.00479 5.8269,-3.10251 19.29842,-3.08297 25.16142,0.0365 6.68655,3.55764 10.0811,6.99297 13.3255,13.48559 9.24639,18.50365 -2.85497,39.66254 -23.59884,41.26192 -3.21372,0.24778 -7.19313,0.0771 -8.84313,-0.37922 z M 237.45863,174.12034 C 229.92193,170.69689 225,162.74811 225,154 c 0,-12.72218 9.52577,-22.3065 22.18863,-22.32501 14.65086,-0.0214 25.20783,13.16696 21.82558,27.26579 -1.44045,6.00446 -6.89311,12.64526 -12.4584,15.17309 -5.26293,2.3905 -13.84235,2.3934 -19.09718,0.006 z M 126.5,165.59749 c -5.01157,-2.21216 -7,-5.22944 -7,-10.62191 0,-3.70397 0.55289,-5.40298 2.39705,-7.36599 7.65863,-8.15224 20.10295,-3.61478 20.10295,7.32996 0,5.0912 -2.3772,8.90228 -6.67228,10.69688 -3.97176,1.65951 -4.99011,1.65502 -8.82772,-0.0389 z M 624.302,67.954996 C 613.34055,63.619394 603.95776,51.360238 602.5234,39.5 c -0.73683,-6.092575 0.74606,-14.31818 3.6179,-20.068472 2.56735,-5.14063 9.87716,-12.4615532 15.27667,-15.2999152 16.81099,-8.8370257 38.38895,-1.708837 47.14636,15.5745982 2.66896,5.267414 2.93469,6.702305 2.92491,15.793789 -0.01,8.981158 -0.29333,10.538371 -2.78415,15.284152 -3.54883,6.761588 -9.23287,12.425603 -15.92094,15.864836 -7.29841,3.753095 -20.73737,4.369319 -28.48215,1.306008 z M 470.5,63.232534 c -7.22652,-2.376167 -15.78861,-11.097942 -17.9111,-18.245137 -2.09914,-7.068556 -2.00611,-12.867925 0.30392,-18.94744 2.64617,-6.964152 7.05803,-12.142348 13.28363,-15.590997 4.73103,-2.620738 6.26961,-2.9476246 13.82355,-2.9369615 6.81074,0.00961 9.31809,0.4472713 12.61647,2.2022019 10.05377,5.3491926 15.37911,13.3358146 16.12697,24.1862226 0.65174,9.455935 -2.14957,16.442183 -9.16316,22.852208 -8.51833,7.785277 -18.40819,9.989015 -29.08028,6.479903 z m -156,-5.128397 C 306.46147,54.382417 302,47.022185 302,37.482459 302,17.309754 326.45098,8.2595535 340.68867,23.162371 344.82963,27.496788 346,30.79159 346,38.11476 c 0,8.898135 -4.27748,15.896445 -12.21016,19.976823 -4.85562,2.497611 -13.90964,2.503503 -19.28984,0.01255 z"
         id="path3" />
      <path
         style="fill:#135faa"
         d="M 915.41519,748.57859 C 910.86054,746.59549 908,742.43142 908,737.78432 908,732.96406 973.7355,370.28426 986.07941,307 c 2.64817,-13.57654 3.69748,-16.86504 8.45576,-26.5 15.44383,-31.27207 48.29903,-62.01164 76.39623,-71.47688 6.1476,-2.07099 7.5532,-2.1063 82.0013,-2.06009 l 75.7465,0.047 7.2763,2.4748 c 26.6758,9.07305 48.7404,28.85013 55.0808,49.37049 3.1713,10.26357 2.6097,19.21258 -3.5702,56.89845 -3.0436,18.56042 -7.1148,43.42121 -9.0469,55.24621 -1.9321,11.825 -7.0879,43.325 -11.4573,70 -4.3694,26.675 -8.2258,50.3 -8.5698,52.5 -1.6001,10.23435 -10.8872,30.24561 -20.188,43.5 -6.4588,9.20429 -21.2937,24.12086 -29.9183,30.08305 -8.3987,5.80601 -21.2635,12.06073 -29.2858,14.23846 -4.2405,1.15112 -20.2218,1.88616 -69.7864,3.20977 -35.3575,0.9442 -66.4565,1.42885 -69.1089,1.07699 -7.2753,-0.96509 -21.0919,-5.93804 -30.9732,-11.14805 -11.83794,-6.2416 -20.86789,-13.08878 -31.40591,-23.81424 -4.82593,-4.91177 -8.91183,-8.75397 -9.07977,-8.53823 -0.16794,0.21574 -2.86223,14.56725 -5.98731,31.89225 -24.53951,136.04359 -30.61316,168.28184 -32.14438,170.61878 -1.71487,2.61722 -7.0671,5.41159 -10.23201,5.34208 -0.98017,-0.0215 -3.17029,-0.64355 -4.86693,-1.38227 z M 1113,559.11024 c 58.422,-1.75091 59.5996,-1.82615 65,-4.15269 10.19,-4.38998 17.3859,-9.26265 26.1363,-17.69808 9.5327,-9.18955 16.5808,-18.71712 22.3557,-30.2203 5.6134,-11.18166 6.1554,-13.22299 10.4566,-39.38151 2.1847,-13.28671 6.0366,-36.75766 8.56,-52.15766 2.5233,-15.4 7.7213,-47.125 11.551,-70.5 3.8298,-23.375 7.9202,-48.27995 9.0898,-55.34432 1.8204,-10.99486 1.9546,-13.61299 0.932,-18.18258 -2.5832,-11.54305 -16.2479,-26.63758 -31.3345,-34.6133 L 1227.5,232.5 l -73.5989,-0.27474 -73.599,-0.27473 -8.901,4.47251 c -20.5123,10.30678 -43.2528,33.57778 -54.4513,55.72144 -4.4691,8.83698 -3.4036,3.52515 -31.50149,157.03962 -5.20289,28.42625 -9.54932,52.76571 -9.65873,54.08768 -0.11517,1.39154 1.74701,5.52459 4.42263,9.8159 13.62721,21.85611 33.22359,38.0233 54.50949,44.97074 10.3442,3.37619 3.7002,3.28692 78.2783,1.05182 z m 615.5,25.91081 c -14.7544,-2.21857 -34.091,-9.98574 -45.9793,-18.46905 -13.3766,-9.5453 -23.4666,-23.87783 -27.1405,-38.552 -2.1566,-8.61392 -1.402,-37.1785 1.5718,-59.5 5.2828,-39.65369 15.5081,-96.12399 28.5376,-157.6027 4.1002,-19.34648 5.0529,-22.4516 9.9397,-32.3973 7.5343,-15.33408 16.4842,-28.30617 27.3288,-39.6107 14.3011,-14.90751 27.6897,-23.31079 44.7419,-28.08186 7.9262,-2.2177 8.7337,-2.24142 87.5613,-2.57225 l 79.5613,-0.33391 8.5248,3.08463 c 16.359,5.91937 33.5245,17.58714 42.4433,28.84961 6.1074,7.71227 11.1173,18.15745 13.029,27.16448 3.1108,14.65618 -0.1718,55.57282 -9.2661,115.5 -2.8928,19.06172 -3.9873,22.2419 -8.6198,25.04394 -3.1105,1.88148 -6.1696,1.97964 -80.2338,2.57438 -42.35,0.34008 -106.761,0.95699 -143.1356,1.37091 l -66.1357,0.75258 -3.586,22.1291 c -6.2436,38.52783 -7.9704,53.87485 -8.0597,71.62909 -0.08,15.88905 0.016,16.71153 2.5946,22.21268 6.2655,13.36761 16.7209,21.53355 36.5349,28.53467 l 7.7875,2.75165 107.5,0.5005 c 103.4845,0.4818 107.6046,0.57142 110.3011,2.399 7.3936,5.01112 7.3213,16.22913 -0.1373,21.29294 -2.5243,1.71385 -8.1097,1.8157 -106.6638,1.945 -57.2,0.0751 -106.25,-0.20188 -109,-0.61539 z M 1867,385.17755 1963.5,384.5 1966.2111,366 c 6.16,-42.03452 9.538,-81.75287 7.8403,-92.18396 -2.3452,-14.40947 -13.4285,-26.66954 -32.4985,-35.94899 L 1933.6058,234 h -77.6214 c -68.49,0 -78.2604,0.18969 -83.0529,1.61244 -21.0005,6.23437 -40.1497,24.95081 -54.2479,53.02198 -4.1802,8.3233 -5.0882,11.58034 -10.5894,37.98475 -8.1821,39.27231 -11.9888,58.7423 -11.6061,59.362 0.1762,0.28535 16.901,0.37373 37.1662,0.19638 20.2651,-0.17735 80.2707,-0.62735 133.3457,-1 z m -573.5211,195.50132 c -5.8643,-5.86432 -5.3177,-15.11705 1.1431,-19.35109 2.6487,-1.73577 8.53,-1.85295 116.8335,-2.32778 l 114.0445,-0.5 8,-3.30356 c 13.5137,-5.58039 21.3038,-10.79141 31.6475,-21.16974 8.4943,-8.52272 10.2564,-10.92632 14.7407,-20.10738 7.2672,-14.87861 9.4442,-25.19691 9.4772,-44.91932 0.057,-34.03461 -9.6865,-55.13876 -30.0973,-65.18965 l -6.7225,-3.31035 -76.5228,-0.52006 c -84.6158,-0.57507 -79.4872,-0.17966 -93.5228,-7.21028 -15.6418,-7.83517 -26.4887,-18.75919 -34.0277,-34.26966 -7.525,-15.48162 -8.9847,-22.86468 -8.897,-45 0.069,-17.30315 0.3143,-19.89308 2.751,-29 9.5495,-35.69105 36.6565,-63.66308 74.9574,-77.34935 L 1427.5,203.5 l 102.4982,-0.26851 c 75.4201,-0.19758 103.2305,0.0348 105.2702,0.8797 7.8299,3.24323 10.4696,13.80183 4.9816,19.92612 -1.6441,1.83477 -4.3585,3.44006 -6.75,3.99192 -2.2972,0.53011 -46.2413,0.93321 -103.2272,0.94691 l -99.2271,0.0239 -6.3083,2.37442 c -21.1553,7.96284 -40.4294,23.24692 -50.013,39.65957 -9.8645,16.89371 -13.4026,44.12335 -8.2467,63.46601 5.2388,19.65313 18.274,33.56471 36.4538,38.90462 4.749,1.39492 14.4061,1.59538 76.8557,1.59538 59.962,0 72.3448,0.23857 77.161,1.48657 22.7516,5.89553 41.2274,22.78717 50.1058,45.80959 5.887,15.26546 7.2914,24.00671 7.343,45.70384 0.052,21.84381 -1.1002,29.44067 -6.9539,45.8513 -11.3645,31.86049 -39.4265,57.90794 -72.8087,67.58171 L 1525.7763,584 H 1411.2881 1296.8 Z"
         id="path2" />
    </g>
  </g>
</svg>
