<?xml version="1.0" encoding="UTF-8" standalone="no"?>
<svg
   xmlns:dc="http://purl.org/dc/elements/1.1/"
   xmlns:cc="http://creativecommons.org/ns#"
   xmlns:rdf="http://www.w3.org/1999/02/22-rdf-syntax-ns#"
   xmlns:svg="http://www.w3.org/2000/svg"
   xmlns="http://www.w3.org/2000/svg"
   viewBox="0 0 377.94666 377.94666"
   height="377.94666"
   width="377.94666"
   xml:space="preserve"
   id="svg2"
   version="1.1"><metadata
     id="metadata8"><rdf:RDF><cc:Work
         rdf:about=""><dc:format>image/svg+xml</dc:format><dc:type
           rdf:resource="http://purl.org/dc/dcmitype/StillImage" /></cc:Work></rdf:RDF></metadata><defs
     id="defs6"><clipPath
       id="clipPath18"
       clipPathUnits="userSpaceOnUse"><path
         id="path16"
         d="M 0,283.46 H 283.46 V 0 H 0 Z" /></clipPath></defs><g
     transform="matrix(1.3333333,0,0,-1.3333333,0,377.94667)"
     id="g10"><g
       id="g12"><g
         clip-path="url(#clipPath18)"
         id="g14"><g
           transform="translate(204.3282,118.8694)"
           id="g20"><path
             id="path22"
             style="fill:#2a68ac;fill-opacity:1;fill-rule:nonzero;stroke:none"
             d="m 0,0 h -26.41 c -0.828,0 -1.5,0.672 -1.5,1.5 0,0.828 0.672,1.5 1.5,1.5 h 26.265 c 0.999,0.21 7.939,1.963 8.249,10.104 0.308,8.074 -4.321,8.882 -5.072,8.96 0,0 -16.93,0.001 -16.951,0 -6.797,1.133 -8.22,7.246 -8.023,10.496 -0.038,8.448 7.093,12.23 10.876,13.05 0.105,0.023 0.212,0.035 0.319,0.035 h 23.78 c 0.828,0 1.5,-0.672 1.5,-1.5 0,-0.829 -0.672,-1.5 -1.5,-1.5 H -10.57 c -1.151,-0.293 -8.434,-2.454 -8.372,-10.117 0,-0.037 -0.001,-0.074 -0.003,-0.111 -0.017,-0.265 -0.326,-6.309 5.39,-7.355 0,0 16.743,0.004 16.731,0 C 3.26,25.058 11.538,24.432 11.102,12.99 10.766,4.143 3.858,0.639 0.253,0.021 0.169,0.007 0.085,0 0,0" /></g><g
           transform="translate(227.3204,153.1272)"
           id="g24"><path
             id="path26"
             style="fill:#2a68ac;fill-opacity:1;fill-rule:nonzero;stroke:none"
             d="m 0,0 c -0.169,-0.77 -1.171,-5.374 -2.156,-10.602 l 32.082,0.269 c 0.42,2.613 1.341,8.787 1.341,12.621 0,3.508 -4.215,5.16 -5.152,5.485 H 8.821 C 3.285,7.773 0.343,0.857 0,0 M 26.78,-34.416 H 2.408 c -0.054,0 -0.106,0.003 -0.16,0.009 -3.213,0.344 -9.327,2.58 -9.464,8.583 -0.144,6.38 4.129,25.762 4.311,26.584 0.015,0.067 0.034,0.133 0.058,0.197 0.149,0.401 3.733,9.816 11.668,9.816 h 17.531 c 0.141,0 0.282,-0.02 0.416,-0.059 0.307,-0.089 7.499,-2.238 7.499,-8.426 0,-5.201 -1.525,-13.996 -1.59,-14.368 -0.124,-0.714 -0.742,-1.236 -1.465,-1.242 l -33.919,-0.284 c -0.856,-4.822 -1.566,-9.656 -1.509,-12.15 0.106,-4.646 5.952,-5.56 6.715,-5.66 H 26.78 c 0.828,0 1.5,-0.672 1.5,-1.5 0,-0.828 -0.672,-1.5 -1.5,-1.5" /></g><g
           transform="translate(138.7667,128.4026)"
           id="g28"><path
             id="path30"
             style="fill:#2a68ac;fill-opacity:1;fill-rule:nonzero;stroke:none"
             d="m 0,0 c 3.052,-5.811 7.762,-6.678 8.457,-6.775 l 15.094,0.43 c 5.245,1.687 7.154,7.197 7.371,7.876 l 4.152,25.349 c 0.434,2.825 -3.896,5.847 -5.676,5.834 C 28.3,32.71 24.787,32.698 21.273,32.692 19.152,32.688 17.029,32.688 15.44,32.689 14.352,32.691 13.565,32.692 12.99,32.728 10.451,32.293 5.927,28.255 4.527,24.497 4.264,23.316 2.223,12.198 0,0 m -6.583,-29.374 c -0.089,0 -0.179,0.008 -0.269,0.024 -0.815,0.148 -1.356,0.928 -1.209,1.743 0,0 2.389,13.21 4.795,26.421 1.204,6.606 2.411,13.212 3.325,18.167 0.458,2.48 0.841,4.547 1.116,5.995 0.226,1.196 0.375,1.981 0.545,2.498 l -0.027,0.009 c 1.695,4.631 6.973,9.594 10.861,10.213 0.137,0.022 0.274,0.024 0.407,0.009 0.992,-0.034 10.501,-0.013 16.778,0.01 10e-4,0 0.003,0 0.005,0 1.455,0.033 9.228,-2.91 8.323,-9.065 -0.008,-0.054 -0.008,-0.109 -0.017,-0.163 L 33.866,0.947 C 33.857,0.892 33.845,0.837 33.83,0.783 33.739,0.463 31.541,-7.081 24.229,-9.274 24.104,-9.313 23.974,-9.334 23.842,-9.337 L 8.43,-9.777 c -0.063,-0.005 -0.123,-0.001 -0.183,0.006 -0.244,0.022 -5.113,0.541 -9.028,5.479 -1.66,-9.118 -3.318,-18.264 -4.328,-23.849 -0.131,-0.725 -0.763,-1.233 -1.474,-1.233" /></g><g
           transform="translate(111.922,170.441)"
           id="g32"><path
             id="path34"
             style="fill:#fdb931;fill-opacity:1;fill-rule:nonzero;stroke:none"
             d="m 0,0 c 0,-2.311 -1.874,-4.185 -4.185,-4.185 -2.311,0 -4.185,1.874 -4.185,4.185 0,2.311 1.874,4.185 4.185,4.185 C -1.874,4.185 0,2.311 0,0" /></g><g
           transform="translate(102.4453,184.652)"
           id="g36"><path
             id="path38"
             style="fill:#fdb931;fill-opacity:1;fill-rule:nonzero;stroke:none"
             d="m 0,0 c 0,-2.311 -1.874,-4.185 -4.185,-4.185 -2.311,0 -4.185,1.874 -4.185,4.185 0,2.311 1.874,4.185 4.185,4.185 C -1.874,4.185 0,2.311 0,0" /></g><g
           transform="translate(92.929,170.441)"
           id="g40"><path
             id="path42"
             style="fill:#fdb931;fill-opacity:1;fill-rule:nonzero;stroke:none"
             d="m 0,0 c 0,-2.311 -1.874,-4.185 -4.185,-4.185 -2.311,0 -4.185,1.874 -4.185,4.185 0,2.311 1.874,4.185 4.185,4.185 C -1.874,4.185 0,2.311 0,0" /></g><g
           transform="translate(111.4391,113.4552)"
           id="g44"><path
             id="path46"
             style="fill:#fdb931;fill-opacity:1;fill-rule:nonzero;stroke:none"
             d="m 0,0 c 0,-2.311 -1.874,-4.185 -4.185,-4.185 -2.311,0 -4.185,1.874 -4.185,4.185 0,2.311 1.874,4.185 4.185,4.185 C -1.874,4.185 0,2.311 0,0" /></g><g
           transform="translate(102.4255,126.8147)"
           id="g48"><path
             id="path50"
             style="fill:#fdb931;fill-opacity:1;fill-rule:nonzero;stroke:none"
             d="m 0,0 c 0,-2.311 -1.874,-4.185 -4.185,-4.185 -2.311,0 -4.185,1.874 -4.185,4.185 0,2.311 1.874,4.185 4.185,4.185 C -1.874,4.185 0,2.311 0,0" /></g><g
           transform="translate(83.2383,126.8147)"
           id="g52"><path
             id="path54"
             style="fill:#fdb931;fill-opacity:1;fill-rule:nonzero;stroke:none"
             d="m 0,0 c 0,-1.911 -1.549,-3.461 -3.461,-3.461 -1.911,0 -3.46,1.55 -3.46,3.461 0,1.911 1.549,3.461 3.46,3.461 C -1.549,3.461 0,1.911 0,0" /></g><g
           transform="translate(92.4716,113.4552)"
           id="g56"><path
             id="path58"
             style="fill:#fdb931;fill-opacity:1;fill-rule:nonzero;stroke:none"
             d="m 0,0 c 0,-1.911 -1.549,-3.461 -3.461,-3.461 -1.911,0 -3.46,1.55 -3.46,3.461 0,1.911 1.549,3.461 3.46,3.461 C -1.549,3.461 0,1.911 0,0" /></g><g
           transform="translate(82.9949,98.808)"
           id="g60"><path
             id="path62"
             style="fill:#fdb931;fill-opacity:1;fill-rule:nonzero;stroke:none"
             d="m 0,0 c 0,-1.911 -1.549,-3.461 -3.461,-3.461 -1.911,0 -3.46,1.55 -3.46,3.461 0,1.911 1.549,3.461 3.46,3.461 C -1.549,3.461 0,1.911 0,0" /></g><g
           transform="translate(73.2586,113.4552)"
           id="g64"><path
             id="path66"
             style="fill:#fdb931;fill-opacity:1;fill-rule:nonzero;stroke:none"
             d="m 0,0 c 0,-1.481 -1.201,-2.682 -2.682,-2.682 -1.481,0 -2.681,1.201 -2.681,2.682 0,1.481 1.2,2.682 2.681,2.682 C -1.201,2.682 0,1.481 0,0" /></g><g
           transform="translate(40.2849,141.4959)"
           id="g68"><path
             id="path70"
             style="fill:#fdb931;fill-opacity:1;fill-rule:nonzero;stroke:none"
             d="m 0,0 c 0,-1.481 -1.201,-2.682 -2.682,-2.682 -1.481,0 -2.681,1.201 -2.681,2.682 0,1.481 1.2,2.682 2.681,2.682 C -1.201,2.682 0,1.481 0,0" /></g><g
           transform="translate(45.0881,155.7872)"
           id="g72"><path
             id="path74"
             style="fill:#fdb931;fill-opacity:1;fill-rule:nonzero;stroke:none"
             d="m 0,0 c 0,-1.481 -1.201,-2.682 -2.682,-2.682 -1.481,0 -2.681,1.201 -2.681,2.682 0,1.481 1.2,2.682 2.681,2.682 C -1.201,2.682 0,1.481 0,0" /></g><g
           transform="translate(54.1754,170.441)"
           id="g76"><path
             id="path78"
             style="fill:#fdb931;fill-opacity:1;fill-rule:nonzero;stroke:none"
             d="m 0,0 c 0,-1.481 -1.201,-2.682 -2.682,-2.682 -1.481,0 -2.681,1.201 -2.681,2.682 0,1.481 1.2,2.682 2.681,2.682 C -1.201,2.682 0,1.481 0,0" /></g><g
           transform="translate(63.3924,184.3358)"
           id="g80"><path
             id="path82"
             style="fill:#fdb931;fill-opacity:1;fill-rule:nonzero;stroke:none"
             d="m 0,0 c 0,-1.481 -1.201,-2.682 -2.682,-2.682 -1.481,0 -2.681,1.201 -2.681,2.682 0,1.481 1.2,2.682 2.681,2.682 C -1.201,2.682 0,1.481 0,0" /></g><g
           transform="translate(63.6521,98.808)"
           id="g84"><path
             id="path86"
             style="fill:#fdb931;fill-opacity:1;fill-rule:nonzero;stroke:none"
             d="m 0,0 c 0,-1.481 -1.201,-2.682 -2.682,-2.682 -1.481,0 -2.681,1.201 -2.681,2.682 0,1.481 1.2,2.682 2.681,2.682 C -1.201,2.682 0,1.481 0,0" /></g><g
           transform="translate(54.435,113.4552)"
           id="g88"><path
             id="path90"
             style="fill:#fdb931;fill-opacity:1;fill-rule:nonzero;stroke:none"
             d="m 0,0 c 0,-1.481 -1.201,-2.682 -2.682,-2.682 -1.481,0 -2.681,1.201 -2.681,2.682 0,1.481 1.2,2.682 2.681,2.682 C -1.201,2.682 0,1.481 0,0" /></g><g
           transform="translate(44.9583,126.8147)"
           id="g92"><path
             id="path94"
             style="fill:#fdb931;fill-opacity:1;fill-rule:nonzero;stroke:none"
             d="m 0,0 c 0,-1.481 -1.201,-2.682 -2.682,-2.682 -1.481,0 -2.681,1.201 -2.681,2.682 0,1.481 1.2,2.682 2.681,2.682 C -1.201,2.682 0,1.481 0,0" /></g><g
           transform="translate(38.5972,113.4552)"
           id="g96"><path
             id="path98"
             style="fill:#fdb931;fill-opacity:1;fill-rule:nonzero;stroke:none"
             d="m 0,0 c 0,-0.764 -0.619,-1.383 -1.383,-1.383 -0.765,0 -1.384,0.619 -1.384,1.383 0,0.764 0.619,1.383 1.384,1.383 C -0.619,1.383 0,0.764 0,0" /></g><g
           transform="translate(29.9626,126.8147)"
           id="g100"><path
             id="path102"
             style="fill:#fdb931;fill-opacity:1;fill-rule:nonzero;stroke:none"
             d="m 0,0 c 0,-0.764 -0.619,-1.383 -1.383,-1.383 -0.765,0 -1.384,0.619 -1.384,1.383 0,0.764 0.619,1.383 1.384,1.383 C -0.619,1.383 0,0.764 0,0" /></g><g
           transform="translate(24.6401,141.7438)"
           id="g104"><path
             id="path106"
             style="fill:#fdb931;fill-opacity:1;fill-rule:nonzero;stroke:none"
             d="m 0,0 c 0,-0.764 -0.62,-1.383 -1.384,-1.383 -0.764,0 -1.383,0.619 -1.383,1.383 0,0.764 0.619,1.383 1.383,1.383 C -0.62,1.383 0,0.764 0,0" /></g><g
           transform="translate(29.5731,155.7641)"
           id="g108"><path
             id="path110"
             style="fill:#fdb931;fill-opacity:1;fill-rule:nonzero;stroke:none"
             d="m 0,0 c 0,-0.764 -0.619,-1.383 -1.383,-1.383 -0.765,0 -1.384,0.619 -1.384,1.383 0,0.764 0.619,1.383 1.384,1.383 C -0.619,1.383 0,0.764 0,0" /></g><g
           transform="translate(38.92,170.3037)"
           id="g112"><path
             id="path114"
             style="fill:#fdb931;fill-opacity:1;fill-rule:nonzero;stroke:none"
             d="m 0,0 c 0,-0.764 -0.619,-1.383 -1.383,-1.383 -0.765,0 -1.384,0.619 -1.384,1.383 0,0.764 0.619,1.383 1.384,1.383 C -0.619,1.383 0,0.764 0,0" /></g><g
           transform="translate(64.3012,126.8147)"
           id="g116"><path
             id="path118"
             style="fill:#fdb931;fill-opacity:1;fill-rule:nonzero;stroke:none"
             d="m 0,0 c 0,-1.911 -1.549,-3.461 -3.461,-3.461 -1.911,0 -3.46,1.55 -3.46,3.461 0,1.911 1.549,3.461 3.46,3.461 C -1.549,3.461 0,1.911 0,0" /></g><g
           transform="translate(54.5648,141.4619)"
           id="g120"><path
             id="path122"
             style="fill:#fdb931;fill-opacity:1;fill-rule:nonzero;stroke:none"
             d="m 0,0 c 0,-1.911 -1.549,-3.461 -3.461,-3.461 -1.911,0 -3.46,1.55 -3.46,3.461 0,1.911 1.549,3.461 3.46,3.461 C -1.549,3.461 0,1.911 0,0" /></g><g
           transform="translate(64.1713,155.7872)"
           id="g124"><path
             id="path126"
             style="fill:#fdb931;fill-opacity:1;fill-rule:nonzero;stroke:none"
             d="m 0,0 c 0,-1.911 -1.549,-3.461 -3.461,-3.461 -1.911,0 -3.46,1.55 -3.46,3.461 0,1.911 1.549,3.461 3.46,3.461 C -1.549,3.461 0,1.911 0,0" /></g><g
           transform="translate(73.7779,170.441)"
           id="g128"><path
             id="path130"
             style="fill:#fdb931;fill-opacity:1;fill-rule:nonzero;stroke:none"
             d="m 0,0 c 0,-1.911 -1.549,-3.461 -3.461,-3.461 -1.911,0 -3.46,1.55 -3.46,3.461 0,1.911 1.549,3.461 3.46,3.461 C -1.549,3.461 0,1.911 0,0" /></g><g
           transform="translate(82.8651,184.5912)"
           id="g132"><path
             id="path134"
             style="fill:#fdb931;fill-opacity:1;fill-rule:nonzero;stroke:none"
             d="m 0,0 c 0,-1.911 -1.549,-3.461 -3.461,-3.461 -1.911,0 -3.46,1.55 -3.46,3.461 0,1.911 1.549,3.461 3.46,3.461 C -1.549,3.461 0,1.911 0,0" /></g><g
           transform="translate(74.2578,141.4619)"
           id="g136"><path
             id="path138"
             style="fill:#fdb931;fill-opacity:1;fill-rule:nonzero;stroke:none"
             d="m 0,0 c 0,-2.311 -1.874,-4.185 -4.185,-4.185 -2.311,0 -4.185,1.874 -4.185,4.185 0,2.311 1.874,4.185 4.185,4.185 C -1.874,4.185 0,2.311 0,0" /></g><g
           transform="translate(83.5934,155.7872)"
           id="g140"><path
             id="path142"
             style="fill:#fdb931;fill-opacity:1;fill-rule:nonzero;stroke:none"
             d="m 0,0 c 0,-2.311 -1.874,-4.185 -4.185,-4.185 -2.311,0 -4.185,1.874 -4.185,4.185 0,2.311 1.874,4.185 4.185,4.185 C -1.874,4.185 0,2.311 0,0" /></g><g
           transform="translate(102.4255,98.808)"
           id="g144"><path
             id="path146"
             style="fill:#fdb931;fill-opacity:1;fill-rule:nonzero;stroke:none"
             d="m 0,0 c 0,-2.311 -1.874,-4.185 -4.185,-4.185 -2.311,0 -4.185,1.874 -4.185,4.185 0,2.311 1.874,4.185 4.185,4.185 C -1.874,4.185 0,2.311 0,0" /></g><path
           id="path148"
           style="fill:#fdb931;fill-opacity:1;fill-rule:nonzero;stroke:none"
           d="M 134.121,140.373 H 72.198 v 2.566 h 61.923 z" /><path
           id="path150"
           style="fill:#fdb931;fill-opacity:1;fill-rule:nonzero;stroke:none"
           d="M 101.978,154.504 H 82.504 v 2.566 h 19.474 z" /><g
           transform="translate(110.3398,140.517)"
           id="g152"><path
             id="path154"
             style="fill:#fdb931;fill-opacity:1;fill-rule:nonzero;stroke:none"
             d="m 0,0 -10.715,16.553 h 2.991 L 2.992,0 Z" /></g><path
           id="path156"
           style="fill:#fdb931;fill-opacity:1;fill-rule:nonzero;stroke:none"
           d="m 111.439,125.532 h -9.934 v 2.566 h 9.934 z" /><g
           transform="translate(109.0741,125.5316)"
           id="g158"><path
             id="path160"
             style="fill:#fdb931;fill-opacity:1;fill-rule:nonzero;stroke:none"
             d="m 0,0 8.888,14.986 h 2.566 L 2.566,0 Z" /></g></g></g></g></svg>