<?xml version="1.0" encoding="UTF-8" standalone="no"?>
<!-- Created with Inkscape (http://www.inkscape.org/) -->

<svg
   version="1.1"
   id="svg1"
   width="1414.8593"
   height="1414.7124"
   viewBox="0 0 1414.8592 1414.7124"
   xmlns="http://www.w3.org/2000/svg"
   xmlns:svg="http://www.w3.org/2000/svg">
  <defs
     id="defs1" />
  <g
     id="g1"
     transform="translate(-1521.1105,31.270005)">
    <path
       style="fill:#fbac92"
       d="m 2205.7612,1383.2683 c -84.9891,-2.9552 -165.6485,-19.9974 -243.04,-51.3509 -169.4458,-68.6473 -307.0572,-201.9591 -381.1874,-369.27749 -47.3977,-106.98092 -67.3207,-223.63305 -58.3153,-341.44523 8.1233,-106.27199 40.3528,-209.53135 94.0963,-301.47264 81.2238,-138.95302 208.2105,-246.941035 357.7663,-304.240207 95.886,-36.736713 197.9463,-52.018398 301.5601,-45.153153 73.2858,4.85577 146.0888,21.4098978 214.56,48.787166 139.011,55.581639 257.6284,154.770854 337.3295,282.078824 59.2628,94.66155 95.0639,201.58942 104.7303,312.80001 3.3253,38.25755 3.5844,75.15918 0.802,114.24 -11.9041,167.20629 -83.8539,325.37892 -202.5287,445.23352 -55.4879,56.0396 -117.3972,100.9605 -187.2131,135.8405 -71.6736,35.8082 -147.8282,58.8268 -227.68,68.8192 -18.4466,2.3083 -35.8172,3.7696 -57.6,4.8454 -8.9987,0.4445 -43.4896,0.6354 -53.28,0.295 z m 324.482,-230.8616 c 12.1373,-1.4207 20.9113,-6.1512 24.3418,-13.1239 0.6949,-1.4124 1.4218,-3.4321 1.6155,-4.4881 0.4687,-2.5568 0.1823,-6.6454 -0.6104,-8.712 -1.9435,-5.0669 -6.9015,-9.1798 -13.0289,-10.808 -2.0945,-0.5566 -7.477,-0.9509 -19.4466,-1.4247 -4.2643,-0.1688 -8.5239,-0.4723 -9.4658,-0.6745 -2.4413,-0.5242 -3.6072,-1.6556 -3.8027,-3.6903 -0.1378,-1.4338 -0.045,-1.7331 0.9365,-3.021 l 1.0895,-1.4295 7.9846,-0.1833 c 8.6994,-0.1997 11.1242,-0.5505 15.5306,-2.2474 6.1688,-2.3755 10.3898,-6.2901 12.1344,-11.2538 1.54,-4.3815 0.3172,-10.9671 -2.7027,-14.556 -0.4498,-0.5345 -0.8178,-1.0591 -0.8178,-1.1657 0,-0.1066 2.808,-0.1938 6.24,-0.1938 h 6.24 v -3.2 -3.2 h -11.3247 c -10.1664,0 -11.6476,-0.067 -14.48,-0.6544 -10.1871,-2.1131 -20.0306,-1.1733 -27.6353,2.6383 -7.6973,3.8581 -11.2903,9.9662 -10.253,17.4302 0.4984,3.5858 1.7732,6.0996 4.4106,8.6966 2.3271,2.2915 5.0419,4.0241 8.4854,5.4154 1.3296,0.5372 2.131,1.04 2.08,1.305 -0.046,0.2371 -1.091,0.7532 -2.323,1.1467 -4.4931,1.4355 -7.5386,3.5172 -8.8954,6.0804 -0.5195,0.9814 -0.6879,1.8579 -0.6844,3.5606 0.01,4.4522 2.5143,7.6109 8.189,10.3262 1.7185,0.8223 3.0827,1.639 3.0317,1.815 -0.051,0.176 -1.233,0.423 -2.6268,0.5489 -10.8244,0.9776 -16.3081,5.7516 -14.8553,12.933 0.946,4.6766 4.6399,8.1077 10.9332,10.1554 2.4688,0.8032 8.9792,2.0111 11.948,2.2166 4.5291,0.3136 14.1345,0.1828 17.762,-0.2419 z m -10.7571,-4.3428 c -6.6562,-0.8285 -11.6449,-5.2787 -11.6449,-10.3881 0,-2.9117 1.6253,-6.4997 3.976,-8.7779 l 1.1318,-1.0968 9.8461,0.3154 c 9.7809,0.3133 9.8592,0.3213 11.8207,1.2091 3.3388,1.5112 4.3988,3.2733 4.3485,7.2291 -0.073,5.7801 -3.1211,9.4728 -9.0802,11.0016 -2.371,0.6083 -7.5557,0.8614 -10.398,0.5076 z m -1.8849,-47.9558 c -3.7612,-1.7414 -5.7304,-6.7239 -5.7042,-14.4334 0.022,-6.6044 1.045,-10.038 3.6549,-12.272 1.8028,-1.5431 4.0788,-2.0616 6.6093,-1.5055 4.7925,1.0531 7.4747,7.2317 7.023,16.1775 -0.3428,6.7886 -2.4889,10.9884 -6.2707,12.2711 -1.5919,0.5399 -3.8509,0.4388 -5.3123,-0.2377 z m -636.1167,28.1249 c 4.0865,-0.8948 8.2941,-3.0684 11.6116,-5.9983 1.0462,-0.924 1.9815,-1.68 2.0783,-1.68 0.097,0 0.5382,0.7147 0.9808,1.5882 2.3777,4.6921 6.1806,6.4007 14.246,6.4007 4.3519,0 6.7961,-0.4053 10.9269,-1.8118 l 2.6731,-0.9101 0.095,-2.1535 0.095,-2.1535 h -2.4946 c -1.372,-9e-4 -3.0386,-0.1528 -3.7034,-0.3374 -1.7392,-0.483 -3.3536,-2.0242 -3.7803,-3.6089 -0.2563,-0.9516 -0.2941,-5.9697 -0.1332,-17.6508 0.1933,-14.0205 0.1561,-16.6444 -0.2637,-18.6149 -1.1149,-5.2336 -3.9381,-8.8647 -8.6647,-11.1444 -3.5246,-1.7 -6.3419,-2.3073 -12.6762,-2.7326 -11.9894,-0.805 -22.7677,2.0583 -28.3493,7.5311 -1.637,1.605 -2.0839,2.2793 -2.5313,3.8182 -1.219,4.1931 0.6577,8.2814 4.5794,9.9764 1.5699,0.6785 6.5076,0.9469 8.7142,0.4737 2.3174,-0.497 4.4872,-1.9386 5.451,-3.6216 1.0638,-1.8575 1.0267,-5.134 -0.099,-8.727 -0.441,-1.408 -0.7369,-2.6707 -0.6574,-2.8061 0.079,-0.1353 0.8903,-0.6279 1.8019,-1.0946 1.9859,-1.0167 6.0853,-1.3901 8.0704,-0.735 1.8486,0.6102 3.8505,2.6455 4.6674,4.7456 0.6001,1.5427 0.7254,2.626 0.8482,7.3317 l 0.144,5.5215 -1.8367,0.8123 c -1.0102,0.4467 -3.7985,1.3909 -6.1963,2.0982 -15.2289,4.4921 -20.6464,6.6617 -23.7519,9.5121 -3.5576,3.2654 -4.9123,6.8614 -4.7184,12.5249 0.1041,3.043 0.2219,3.6089 1.1381,5.4699 2.1662,4.4003 6.803,7.5451 12.4125,8.4185 1.476,0.2298 7.5787,-0.059 9.3232,-0.4407 z m 2.3371,-8.7415 c -2.1479,-0.5992 -3.4815,-1.6951 -4.3175,-3.5478 -1.49,-3.3024 -1.2967,-7.6337 0.5038,-11.2911 1.1917,-2.4206 2.9977,-4.0718 6.3761,-5.8294 2.1558,-1.1216 7.959,-3.5485 8.4852,-3.5485 0.095,0 0.172,4.4431 0.172,9.8736 v 9.8736 l -1.7597,1.6643 c -0.9679,0.9154 -2.3719,1.932 -3.12,2.2592 -1.8546,0.8111 -4.556,1.0438 -6.3399,0.5461 z m 211.7548,8.5635 c 7.9132,-1.6288 15.5948,-6.8071 20.1961,-13.6144 l 0.9964,-1.4742 -2.1438,-1.498 -2.1439,-1.4979 -1.262,1.5321 c -3.2874,3.991 -6.8714,6.7256 -10.5453,8.046 -1.9389,0.6968 -2.8132,0.8167 -5.9527,0.8162 -11.3618,0 -17.2582,-5.8997 -18.8452,-18.8501 -0.1941,-1.584 -0.3534,-3.492 -0.3539,-4.24 l -9e-4,-1.36 h 19.8875 19.8875 l -0.1878,-4.4 c -0.4491,-10.5215 -4.3657,-17.1487 -12.5207,-21.1861 -3.3842,-1.6754 -6.6713,-2.4872 -11.724,-2.8953 -9.074,-0.7329 -16.7416,1.0202 -23.1939,5.303 -5.564,3.6932 -9.7613,9.5862 -11.8363,16.6184 -0.6533,2.2138 -0.8903,3.8495 -1.0246,7.071 -0.7512,18.0204 9.7167,30.0663 27.9123,32.1203 3.426,0.3867 9.7677,0.1445 12.8552,-0.491 z m -19.9238,-37.3795 c -0.3162,-0.824 0.4369,-7.155 1.1627,-9.7741 1.6425,-5.927 4.6587,-8.9867 8.859,-8.9867 5.5524,0 8.185,4.4169 8.6305,14.48 l 0.1948,4.4 h -4.7692 c -2.623,6e-4 -6.8172,0.095 -9.3203,0.2094 -4.0854,0.1869 -4.5722,0.1531 -4.7575,-0.3298 z m 113.279,37.3665 c 3.9331,-1.0171 9.0973,-3.9261 11.5295,-6.4947 0.5169,-0.5459 1.0929,-0.992 1.28,-0.9914 0.1871,7e-4 0.6074,0.6512 0.9342,1.4457 0.7247,1.7623 2.8632,4.0232 4.6836,4.952 2.0849,1.0636 5.2278,1.5895 9.5358,1.5956 4.3192,0.01 7.2967,-0.4857 11.1913,-1.8484 l 2.4752,-0.8661 0.095,-2.16 0.095,-2.16 -2.3346,-0.01 c -4.0886,-0.013 -5.8546,-0.7326 -7.1346,-2.9058 -0.6198,-1.0523 -0.64,-1.6621 -0.64,-19.3266 0,-18.1532 0,-18.249 -0.7215,-20.1344 -2.3079,-6.0599 -6.501,-9.4128 -13.6069,-10.8806 -4.0187,-0.8301 -11.3474,-1.2073 -15.7215,-0.8092 -10.0937,0.9186 -18.9817,4.9596 -21.7451,9.8865 -0.8249,1.4708 -0.9735,2.0692 -0.9537,3.84 0.057,5.106 3.1989,7.966 9.0843,8.269 5.2851,0.2721 8.6577,-1.1249 10.0775,-4.1745 1.0123,-2.1743 1.0088,-4.1825 -0.013,-7.5968 -0.44,-1.47 -0.8,-2.933 -0.8,-3.251 0,-1.0524 2.9914,-2.2779 5.96,-2.4416 4.3843,-0.2418 6.4801,0.8731 8.1971,4.3608 1.0405,2.1135 1.0416,2.121 1.1546,7.8837 l 0.1131,5.7681 -2.7357,1.0312 c -1.5047,0.5672 -5.9224,1.973 -9.8172,3.1241 -12.2099,3.6085 -16.5099,5.4763 -19.5565,8.4948 -3.2656,3.2354 -4.6462,7.154 -4.3617,12.3797 0.1943,3.5678 1.0832,5.9277 3.0635,8.1324 2.5523,2.8416 5.9181,4.6794 9.9071,5.4096 2.1161,0.3873 8.4292,0.08 10.766,-0.5245 z m 1.3682,-8.5713 c -1.9976,-0.5546 -3.8803,-2.3742 -4.5535,-4.4008 -0.6354,-1.9132 -0.6483,-6.2944 -0.025,-8.3612 1.0506,-3.481 3.516,-6.063 7.8653,-8.237 1.868,-0.9337 7.4198,-3.197 7.8422,-3.197 0.095,0 0.1721,4.49 0.1721,9.9777 v 9.9776 l -1.52,1.4284 c -2.7824,2.6146 -6.5706,3.7038 -9.7814,2.8123 z m 191.9191,8.5964 c 4.0168,-1.0462 7.4389,-2.8851 10.9023,-5.8584 1.056,-0.9066 1.9993,-1.6496 2.0963,-1.6511 0.097,0 0.4884,0.6398 0.87,1.4252 2.2494,4.6298 6.3853,6.5579 14.0872,6.5672 4.3188,0.01 7.2986,-0.4872 11.1913,-1.8492 l 2.4752,-0.8661 0.094,-2.1212 0.094,-2.1212 -2.9825,-0.1305 c -3.7123,-0.1623 -5.1749,-0.8223 -6.3249,-2.8539 l -0.8,-1.4132 0.16,-10.72 c 0.266,-17.8221 0.2,-23.6483 -0.2897,-25.6 -1.407,-5.6074 -4.8841,-9.5371 -10.198,-11.5253 -6.0061,-2.2471 -17.247,-2.7349 -25.1721,-1.0922 -7.9208,1.6417 -14.4759,5.4693 -16.3839,9.5667 -1.8821,4.0417 -0.2718,8.7044 3.6756,10.6429 1.6838,0.8269 2.0829,0.8879 5.8081,0.8873 3.5831,-5e-4 4.15,-0.079 5.44,-0.7561 4.2458,-2.2276 5.1938,-5.5284 3.3313,-11.5998 -0.8575,-2.7956 -0.8631,-2.8662 -0.2637,-3.3229 2.2741,-1.7326 7.6503,-2.3401 10.2124,-1.1539 3.6367,1.6837 5.1196,5.9609 4.8933,14.1133 l -0.093,3.36 -2.7847,1.0371 c -1.5315,0.5704 -4.7715,1.6236 -7.2,2.3404 -17.7391,5.2366 -22.1133,7.5611 -24.9115,13.2384 -2.1282,4.3177 -2.231,9.8704 -0.2575,13.9102 1.9524,3.9967 6.6871,7.2582 11.6809,8.0461 2.3011,0.3631 8.4445,0.075 10.6505,-0.4998 z m 1.9423,-8.4364 c -3.983,-1.0327 -5.8542,-4.2424 -5.5145,-9.4594 0.4261,-6.5444 3.4252,-9.8221 12.2953,-13.4372 1.9694,-0.8026 3.7505,-1.4594 3.9581,-1.4594 0.2867,0 0.3221,2.4027 0.1472,10 l -0.2302,10 -0.8479,0.912 c -2.5147,2.7045 -6.824,4.2177 -9.808,3.444 z m 201.2504,8.4113 c 3.9331,-1.0171 9.0973,-3.9261 11.5295,-6.4947 0.5169,-0.5459 1.0938,-0.9926 1.2819,-0.9926 0.1881,0 0.6595,0.6921 1.0475,1.538 0.3881,0.8459 1.2177,2.0652 1.8435,2.7096 2.6683,2.7475 5.9092,3.7379 12.2607,3.7469 4.3192,0.01 7.2967,-0.4857 11.1913,-1.8484 l 2.4752,-0.8661 0.094,-2.1165 0.094,-2.1166 -3.1336,-0.1522 c -3.3965,-0.165 -4.7025,-0.6239 -5.8206,-2.0453 -1.2769,-1.6233 -1.3273,-2.5175 -1.1179,-19.8094 0.224,-18.4984 0.1723,-19.1402 -1.8482,-22.931 -3.4804,-6.53 -10.3342,-9.2476 -23.467,-9.3053 -9.7145,-0.043 -17.5704,2.0839 -23.04,6.2369 -3.2477,2.466 -4.32,4.3386 -4.32,7.5445 0,5.1963 3.0297,8.0001 8.9756,8.3062 8.7621,0.4512 12.3922,-3.776 10.1012,-11.7626 -0.4602,-1.6045 -0.8368,-3.1244 -0.8368,-3.3776 0,-0.2531 0.756,-0.8577 1.68,-1.3434 1.5255,-0.8019 1.9911,-0.8834 5.0623,-0.8854 3.1582,0 3.4707,0.056 4.7172,0.8805 2.8529,1.8863 3.7673,4.549 4.0965,11.9294 l 0.2199,4.9295 -1.5024,0.644 c -1.5311,0.6563 -5.3682,1.8816 -15.0735,4.8133 -12.5921,3.8038 -17.1035,6.7737 -19.3944,12.7678 -0.9588,2.5089 -1.1812,7.1797 -0.4734,9.9428 1.3783,5.3798 6.1699,9.4066 12.5921,10.5822 2.1162,0.3873 8.4293,0.08 10.7661,-0.5245 z m 1.5801,-8.481 c -1.8774,-0.4404 -4.0817,-2.4689 -4.7207,-4.3443 -0.6576,-1.9298 -0.6617,-6.1794 -0.01,-8.4439 0.5981,-2.0721 2.2464,-4.5969 3.8067,-5.8305 1.6579,-1.3109 5.3626,-3.2358 8.7197,-4.5306 1.6213,-0.6253 3.0613,-1.1371 3.2,-1.1372 0.1386,-2e-4 0.18,4.5525 0.092,10.117 l -0.16,10.1174 -1.44,1.2892 c -2.6743,2.3943 -6.4161,3.4838 -9.4895,2.7629 z m 78.6095,8.849 c 6.4454,-0.9773 11.8002,-3.3773 15.3196,-6.8663 2.712,-2.6886 4.0916,-5.4135 4.7662,-9.4143 1.1455,-6.794 -1.2307,-12.9699 -6.4018,-16.6383 -3.8352,-2.7207 -6.5875,-3.8467 -16.5009,-6.7506 -7.068,-2.0703 -10.1376,-3.986 -10.9238,-6.817 -0.8794,-3.1667 0.055,-6.2429 2.3807,-7.8382 2.8361,-1.9454 8.224,-2.366 11.9713,-0.9345 4.881,1.8646 9.9198,6.9517 12.0281,12.1434 l 0.7394,1.8205 1.9506,0.095 1.9506,0.095 -0.028,-2.1753 c -0.015,-1.1964 -0.1952,-5.6313 -0.4,-9.8553 l -0.3723,-7.68 h -2.1985 -2.1985 l -0.5687,1.44 c -0.671,1.6989 -0.5765,1.6926 -4.9543,0.3298 -5.0361,-1.5678 -8.765,-2.0385 -14.5512,-1.8369 -7.3842,0.2573 -11.9095,1.5875 -16.4688,4.841 -3.241,2.3127 -5.0726,4.7087 -6.2998,8.2409 -0.983,2.8296 -0.9735,7.8694 0.02,10.7889 0.8512,2.5003 2.4285,5.02 4.2478,6.7855 2.9906,2.9022 6.0268,4.4766 12.5774,6.5218 12.1133,3.782 12.4715,3.9254 14.5895,5.8388 1.8467,1.6685 2.3244,2.7588 2.3098,5.2724 -0.033,5.7246 -3.934,8.5492 -11.3047,8.1858 -3.317,-0.1635 -5.5197,-0.8719 -8.8759,-2.8545 -3.9646,-2.3421 -9.375,-8.8491 -11.2989,-13.5892 l -0.6998,-1.7243 h -2.0865 -2.0865 l 0.1988,3.28 c 0.1094,1.804 0.2941,6.7 0.4105,10.88 l 0.2116,7.6 h 2.2776 2.2777 l 0.8552,-1.9349 0.8551,-1.9349 1.8604,0.9384 c 3.4502,1.7401 9.2813,3.5241 13.0604,3.9957 2.433,0.3037 8.608,0.1683 11.36,-0.249 z m -350.4214,-5.5373 c 10.5559,-25.8342 24.4713,-58.8658 27.1135,-64.3607 1.2991,-2.7016 2.1811,-4.0721 3.4139,-5.305 1.9768,-1.9768 5.6229,-3.8806 8.4672,-4.4211 l 1.9868,-0.3776 v -2.1668 -2.1668 h -16.8 -16.8 v 2.1769 2.1768 l 3.2315,0.4033 c 3.5069,0.4377 6.7288,1.3143 7.9223,2.1554 1.3605,0.9588 1.6763,2.2752 1.1498,4.7919 -0.6637,3.172 -1.3438,5.12 -5.9689,17.0957 -7.2644,18.8099 -13.7767,34.9272 -14.0046,34.6595 -0.1214,-0.1427 -1.997,-4.6515 -4.1679,-10.0195 -2.171,-5.368 -6.1006,-14.944 -8.7326,-21.28 -7.8755,-18.9585 -8.9865,-21.8788 -9.0093,-23.68 -0.02,-1.5958 -0.016,-1.6019 1.5,-2.354 1.2283,-0.6093 7.0938,-1.913 8.7997,-1.9559 0.278,-0.01 0.4,-0.6448 0.4,-2.0901 v -2.08 h -22.5746 -22.5746 l 0.095,2.1344 0.095,2.1343 2.2236,0.4483 c 4.9254,0.993 9.0559,3.9204 11.0997,7.8666 0.916,1.7686 26.6533,64.1438 29.1047,70.5364 0.2725,0.7105 0.3538,0.72 6.1241,0.718 h 5.8479 z m -504.9386,3.321 c 16.8542,-2.7865 27.9603,-9.5014 34.4665,-20.839 4.4037,-7.6739 5.8218,-17.4798 4.0601,-28.0758 -1.4238,-8.5635 -5.5338,-15.8667 -12.2569,-21.7796 -5.1882,-4.5631 -13.1882,-8.4612 -20.5097,-9.9938 -6.5081,-1.3623 -7.8383,-1.4188 -33.5346,-1.4249 l -24.7346,-0.01 0.095,2.1437 0.095,2.1437 2.7232,0.3921 c 5.241,0.7545 8.1834,2.435 8.922,5.0955 0.244,0.8789 0.3496,10.7398 0.346,32.305 0,29.8034 -0.029,31.0934 -0.6131,32.3789 -1.1033,2.43 -3.1427,3.3001 -8.8981,3.7962 l -2.64,0.2276 v 2.2184 2.2183 l 24.56,-0.1224 c 21.4228,-0.1068 24.9892,-0.1934 27.92,-0.678 z m -11.68,-4.6657 c -3.2365,-0.5356 -5.5073,-1.9176 -6.8202,-4.1508 l -0.8598,-1.4625 -0.086,-33.36 -0.086,-33.36 h 6.0058 c 8.0187,0 11.4343,0.7908 15.9484,3.6784 6.4732,4.1408 10.7448,11.6288 12.6868,22.2393 0.5533,3.0229 0.6769,4.9943 0.692,11.04 0.028,11.1026 -1.08,17.2029 -4.3253,23.816 -3.5898,7.3152 -9.7546,11.1881 -18.562,11.6613 -1.6468,0.088 -3.7141,0.042 -4.5941,-0.104 z m 165.6,3.4108 v -2.0159 l -2.3351,-0.6869 c -2.6004,-0.7651 -3.8084,-1.5657 -4.6313,-3.0695 -0.5017,-0.9169 -0.5623,-2.6113 -0.6468,-18.0747 l -0.093,-17.0629 2.3332,-2.3236 c 3.7855,-3.7699 8.3379,-5.5118 12.3166,-4.7127 3.2165,0.6459 4.9517,2.2219 6.2455,5.6726 0.6918,1.8449 0.7111,2.2788 0.8186,18.3658 0.077,11.5263 0,16.9099 -0.2515,17.92 -0.6164,2.4614 -1.6369,3.1411 -5.5159,3.6741 l -1.52,0.2088 v 2.0604 2.0604 h 17.44 17.44 v -2.0655 -2.0655 l -1.2,-0.2223 c -3.3084,-0.6129 -5.6395,-1.8464 -6.5894,-3.4867 -0.2626,-0.4534 -0.425,-5.9109 -0.5572,-18.72 -0.2068,-20.0447 -0.163,-19.6107 -2.4326,-24.1174 -3.1556,-6.2662 -8.8668,-9.0677 -17.8608,-8.7611 -7.0521,0.2403 -11.045,1.9779 -17.3509,7.5507 -1.6229,1.4343 -3.0269,2.6078 -3.12,2.6078 -0.093,0 -0.1691,-2.0205 -0.1691,-4.49 0,-3.9542 -0.066,-4.5153 -0.5514,-4.7016 -0.4658,-0.1788 -13.5835,0.4001 -24.8086,1.0948 l -3.12,0.193 v 2.0258 c 0,1.9536 0.031,2.0322 0.88,2.2034 2.1187,0.4277 4.2337,1.174 5.2366,1.8481 1.3064,0.8779 3.0027,3.6011 3.277,5.2607 0.3458,2.0924 0.2195,35.6404 -0.1401,37.2058 -0.6002,2.613 -2.4429,3.7634 -6.9335,4.3286 l -1.68,0.2115 v 2.05 2.0499 h 17.76 17.76 z m 84.16,-0.025 v -2.0411 l -2.1189,-0.5322 c -3.8678,-0.9716 -5.8215,-2.4475 -6.507,-4.9155 -0.2136,-0.7692 -0.3311,-9.5964 -0.3323,-24.9601 0,-22.2194 -0.038,-23.7839 -0.5543,-23.9821 -0.3039,-0.1166 -6.7479,0.1087 -14.32,0.5008 -7.5721,0.392 -13.9475,0.7079 -14.1675,0.702 -0.2798,-0.01 -0.4,0.6101 -0.4,2.0548 v 2.0655 l 1.2,0.2231 c 4.847,0.9008 8.0051,3.0396 8.8905,6.0209 0.6672,2.2468 0.6725,36.8171 0.01,38.6862 -0.8354,2.3424 -2.2158,3.2025 -6.0563,3.7737 l -2.4401,0.3629 v 2.0411 2.0411 h 18.4 18.4 z m 109.76,-0.012 v -2.0534 l -1.6509,-0.3541 c -2.0936,-0.449 -4.3609,-1.4475 -5.3463,-2.3546 -1.7159,-1.5794 -1.6428,0.3304 -1.6428,-42.8949 0,-34.2063 -0.067,-40.1866 -0.4527,-40.5068 -0.3476,-0.2885 -3.6343,-0.2199 -14.16,0.2956 -7.539,0.3693 -14.1753,0.7432 -14.7473,0.8311 l -1.04,0.1596 v 2.0655 2.0655 h 0.9435 c 1.2306,0 5.6875,1.4257 6.8231,2.1825 0.4875,0.325 1.2498,1.0829 1.6938,1.6842 1.8054,2.445 1.7584,1.3586 1.6653,38.5548 -0.096,38.4293 0.092,35.6235 -2.4781,36.9347 -1.0444,0.5328 -4.4289,1.2525 -6.0076,1.2775 -0.2783,0 -0.4,0.639 -0.4,2.0863 v 2.08 h 18.4 18.4 z m 309.76,0.019 v -2.0343 l -3.44,-0.5313 c -4.4118,-0.6814 -6.0799,-1.4842 -7.04,-3.388 -0.7199,-1.4278 -0.72,-1.428 -0.72,-18.6033 v -17.1755 l 2.0595,-1.9265 c 2.2638,-2.1176 5.4344,-3.857 7.5475,-4.1404 l 1.3623,-0.1827 -0.2846,1.2481 c -0.1566,0.6865 -0.2839,2.4721 -0.283,3.9681 0,3.3749 0.8032,5.0616 3.1522,6.6357 2.0352,1.3638 3.6621,1.7983 6.7661,1.807 2.1543,0.01 2.8199,-0.1275 4.1995,-0.8426 2.0901,-1.0833 4.0648,-3.3254 4.9611,-5.633 0.9781,-2.518 0.971,-6.818 -0.016,-9.3916 -0.9122,-2.3798 -3.0121,-4.6812 -5.351,-5.8646 -1.6541,-0.8369 -2.2656,-0.9596 -5.2994,-1.0634 -2.7981,-0.096 -3.8295,0.01 -5.602,0.5475 -3.2783,1.0033 -6.738,3.2109 -10.1624,6.4847 l -3.0502,2.916 v -4.3187 c 0,-3.5488 -0.09,-4.3935 -0.5065,-4.739 -0.483,-0.4008 -7.8622,-0.1391 -25.1735,0.8927 l -3.12,0.186 v 2.009 2.009 l 1.84,0.3731 c 3.6968,0.7498 5.9679,2.3181 7.1613,4.9451 0.5449,1.1996 0.5852,2.577 0.5917,20.2574 0.01,20.5233 0.019,20.3787 -1.7179,21.745 -0.8489,0.6677 -2.5936,1.1612 -5.3951,1.526 l -1.52,0.1979 v 2.0604 2.0604 h 19.52 19.52 z m -437.2587,-67.4335 c 2.5457,-0.4662 4.6759,-1.6749 6.5334,-3.7073 1.8656,-2.0413 2.5664,-3.9455 2.5622,-6.962 -0.01,-3.992 -2.2728,-7.374 -6.2543,-9.3288 -1.7171,-0.8431 -2.2145,-0.9342 -5.1026,-0.9342 -2.8591,0 -3.3949,0.096 -5.0296,0.8985 -2.407,1.182 -4.5805,3.3368 -5.5901,5.542 -0.7238,1.5811 -0.8006,2.0957 -0.6821,4.5729 0.1551,3.2453 0.8759,4.7963 3.2426,6.9779 1.7885,1.6486 3.103,2.349 5.3392,2.8448 2.2756,0.5046 2.7057,0.5129 4.9813,0.096 z m -177.5287,-98.86413 c 19.8582,-2.11862 34.4693,-12.19839 39.6431,-27.34848 2.7694,-8.10944 2.0663,-19.04384 -1.7039,-26.4983 -3.2204,-6.36757 -9.0162,-11.73669 -16.9118,-15.66673 -3.7424,-1.86282 -7.7549,-3.33167 -21.76,-7.96561 -8.5678,-2.8349 -12.5917,-4.33997 -15.702,-5.87309 -8.4234,-4.15204 -11.8371,-8.44582 -12.2085,-15.35628 -0.3559,-6.62093 2.5099,-12.11748 8.253,-15.82943 3.1315,-2.02397 6.5067,-2.9552 11.3636,-3.13523 6.5966,-0.24452 11.077,0.91661 16.0825,4.16791 3.2306,2.09836 7.7298,6.6983 10.2473,10.47675 2.2303,3.34746 6.5759,11.95491 8.8048,17.44 l 1.4304,3.52001 3.5868,0.0909 3.5868,0.0909 -0.2049,-13.53088 c -0.1127,-7.44198 -0.2941,-16.66288 -0.4031,-20.49088 l -0.1982,-6.96 h -3.5525 -3.5526 l -2.607,2.59341 c -2.5431,2.52991 -2.6255,2.58131 -3.3666,2.09917 -1.0162,-0.66108 -5.494,-2.57144 -9.2398,-3.94196 -13.3309,-4.87758 -28.2153,-5.31795 -40.6086,-1.20147 -10.8843,3.61529 -18.4761,9.56655 -23.0358,18.05795 -2.5393,4.72894 -3.5326,8.39998 -3.7646,13.9129 -0.6289,14.94609 6.9767,27.29537 20.8002,33.77327 3.6872,1.72789 9.4849,3.80885 21.6488,7.77036 13.2524,4.31599 18.1879,6.66887 22.0358,10.50489 1.8683,1.86256 2.9963,3.55967 3.9026,5.87149 1.0663,2.71998 1.1008,8.25854 0.072,11.53328 -2.5905,8.24415 -10.1706,13.25272 -20.8901,13.80327 -5.8606,0.30099 -11.7501,-0.7981 -16.16,-3.01577 -6.6055,-3.32175 -13.5586,-9.97433 -18.7542,-17.94351 -2.1544,-3.30462 -6.1007,-10.79297 -7.8295,-14.85727 l -0.9187,-2.16 h -3.6499 -3.6498 l 0.1983,4.08 c 0.1091,2.244 0.3516,11.496 0.5389,20.56 0.1872,9.064 0.411,16.948 0.4972,17.52 l 0.1567,1.04 h 3.4195 3.4195 l 2.9485,-2.93624 2.9485,-2.93624 3.8217,1.808 c 7.0656,3.3426 15.7196,5.85763 23.3197,6.7772 4.2717,0.51686 13.7874,0.59945 17.9462,0.15576 z m 201.9874,0.005 c 9.1168,-0.94463 17.3957,-3.94251 25.1101,-9.09262 7.3263,-4.89101 13.226,-11.65689 18.0704,-20.72351 l 1.6289,-3.04854 -3.5674,-2.13521 c -1.9621,-1.17436 -3.5962,-2.09444 -3.6314,-2.04462 -0.035,0.0498 -0.896,1.38021 -1.913,2.95642 -7.8026,12.09317 -16.288,18.98253 -26.6417,21.63055 -9.5257,2.43627 -20.6629,0.84616 -28.0975,-4.01159 -2.5361,-1.6571 -7.0593,-6.20638 -8.7544,-8.8048 -3.7245,-5.7095 -6.5998,-13.85639 -8.0252,-22.73876 -2.3884,-14.88365 -1.1856,-34.27553 2.8806,-46.43924 2.3835,-7.12995 5.2148,-11.97825 9.4033,-16.10201 2.7254,-2.68328 4.9717,-4.1951 8.1268,-5.46952 3.9573,-1.5984 5.6538,-1.88314 11.0905,-1.86136 4.6124,0.0185 5.4005,0.106 7.9492,0.88274 12.3931,3.77701 20.7569,14.28214 27.8149,34.93581 l 1.0359,3.0316 3.6476,3.7e-4 3.6476,3.7e-4 -0.206,-10.48001 c -0.1134,-5.764 -0.3003,-15.628 -0.4155,-21.92 l -0.2094,-11.44 h -3.6198 -3.6198 l -2.4924,2.23271 c -2.4276,2.17476 -3.1639,2.55482 -3.7883,1.9555 -0.5468,-0.52484 -6.9457,-3.1208 -10.544,-4.27759 -7.7288,-2.48468 -13.8156,-3.28451 -23.0056,-3.02306 -11.142,0.31697 -20.2126,2.55698 -29.4986,7.28479 -20.6361,10.50648 -33.0958,32.00595 -33.0958,57.10766 0,17.57961 6.1335,33.45226 17.1808,44.46126 9.4031,9.37063 22.5968,15.45351 37.0592,17.08605 3.543,0.39994 12.8169,0.42617 16.48,0.0466 z m 130.56,-0.46515 c 13.6838,-2.13921 24.6836,-7.49231 34.2003,-16.64368 9.8249,-9.44769 16.0678,-22.63759 17.9463,-37.9167 0.4924,-4.0045 0.4117,-14.09862 -0.1467,-18.35852 -2.2954,-17.5101 -12.3072,-33.28957 -26.8799,-42.36503 -8.8174,-5.49124 -18.9983,-8.90995 -29.8819,-10.03425 -5.2527,-0.54262 -15.1485,-0.21369 -20.1981,0.67136 -22.8676,4.00805 -39.7998,17.62259 -47.9994,38.5945 -4.3084,11.0194 -5.4714,26.02276 -2.9988,38.68355 2.0293,10.39076 7.633,20.98307 15.293,28.90748 10.179,10.53031 23.661,17.00007 39.3852,18.90021 3.8483,0.46503 17.2684,0.18823 21.28,-0.43892 z m -18.3208,-7.82413 c -8.6098,-1.87712 -15.2625,-8.28996 -19.6119,-18.90464 -2.2613,-5.51889 -3.9392,-12.69293 -5.0143,-21.44 -0.6376,-5.18765 -0.5318,-24.26805 0.1649,-29.73249 1.4889,-11.67796 4.4352,-21.04988 8.734,-27.78223 1.5915,-2.49252 5.551,-6.51045 7.9667,-8.08433 7.1455,-4.65547 18.1593,-5.09357 25.8924,-1.02993 2.7681,1.45459 7.1825,5.5915 9.4194,8.82732 4.4945,6.50145 7.4556,15.87831 8.9059,28.20166 0.8056,6.84561 0.8067,24.32159 0,30.88 -1.8338,14.94339 -6.0828,25.98916 -12.4445,32.35087 -4.8955,4.89546 -9.8373,6.96158 -17.2136,7.19684 -3.1134,0.0993 -4.6208,-0.008 -6.8009,-0.48307 z m 279.1206,7.83568 c 17.9261,-2.70501 32.9475,-12.02392 42.3299,-26.26032 7.511,-11.39684 11.3612,-27.35275 10.2116,-42.31859 -0.9004,-11.72275 -3.9673,-20.79813 -10.1385,-30.00142 -9.9528,-14.84303 -26.1625,-24.29851 -45.5417,-26.56541 -19.8074,-2.31699 -38.8041,2.96467 -52.749,14.66576 -8.4403,7.08223 -15.5524,18.43673 -18.7783,29.97966 -2.7737,9.92452 -3.2203,22.8302 -1.1448,33.08147 2.4625,12.1631 9.3741,24.11556 18.6462,32.24559 9.7596,8.55745 22.1926,13.94541 36.0448,15.62045 3.6131,0.4369 17.1622,0.15001 21.1198,-0.44719 z m -17.4398,-7.67146 c -5.0275,-0.98001 -8.8056,-3.00701 -12.5154,-6.71469 -8.2943,-8.28944 -12.7622,-22.94736 -13.4475,-44.11676 -0.4317,-13.33458 1.1474,-26.41439 4.3593,-36.10981 4.8857,-14.748 13.1562,-22.22371 25.3448,-22.90911 17.4814,-0.98304 28.5937,12.41692 31.7688,38.30882 1.8401,15.00557 0.9906,33.05355 -2.1081,44.78768 -3.8888,14.72637 -10.7509,23.38343 -20.8135,26.25787 -3.0386,0.86799 -9.3951,1.11845 -12.5884,0.496 z m 155.2,7.96966 c 14.1196,-1.49726 32.697,-6.70792 42.5244,-11.9274 l 2.8443,-1.51068 -0.059,-14.76727 c -0.056,-14.07059 -0.028,-14.85562 0.5879,-16.64 0.9056,-2.62257 2.4628,-3.95855 5.8601,-5.02751 1.453,-0.45722 3.7219,-0.98896 5.0419,-1.18165 4.2823,-0.62512 3.84,-0.18401 3.84,-3.82967 v -3.1939 h -31.2112 -31.2112 l 0.091,3.25582 0.091,3.25582 3.2365,0.55283 c 8.8411,1.51015 12.8108,3.52664 14.1878,7.20683 0.6226,1.66428 0.6557,2.4288 0.6557,15.15381 v 13.40111 l -1.226,0.97103 c -3.3748,2.67291 -9.613,5.1546 -14.9969,5.96612 -17.0653,2.57226 -28.8547,-5.75927 -35.0975,-24.80337 -4.8353,-14.75051 -5.6912,-36.6948 -2.0822,-53.38339 3.0815,-14.24909 10.6286,-25.31386 19.8111,-29.04506 4.5059,-1.83089 6.5334,-2.2023 11.9915,-2.19662 4.2209,0.004 5.6189,0.13063 7.9607,0.71884 10.2576,2.57656 17.7379,9.78368 24.3142,23.42622 1.8828,3.90591 4.5246,10.4137 5.8131,14.32001 0.096,0.2894 1.1576,0.4 3.8416,0.4 h 3.7096 l -0.1678,-1.36 c -0.092,-0.748 -0.2473,-8.34401 -0.3442,-16.88001 -0.097,-8.536 -0.2663,-17.788 -0.3763,-20.56 l -0.1999,-5.04 -3.5555,0.004 -3.5555,0.004 -2.55,2.25457 c -1.5407,1.36215 -2.744,2.19269 -3.04,2.09824 -0.2695,-0.086 -2.434,-0.94768 -4.81,-1.91488 -5.2472,-2.13598 -11.0704,-3.85898 -16,-4.7341 -4.7589,-0.84485 -14.6936,-1.14538 -20.3722,-0.61629 -31.1765,2.90485 -52.3948,22.06325 -57.44,51.86358 -0.8215,4.85232 -1.1135,14.01079 -0.618,19.38276 1.6488,17.87306 9.1155,32.22716 21.9061,42.11243 9.0943,7.02848 20.1353,11.1593 33.4841,12.52758 3.0642,0.31409 13.1295,0.15847 17.12,-0.26469 z m -846.24,-5.91199 c 0,-3.05679 -0.031,-3.19999 -0.72,-3.33587 -0.396,-0.0781 -2.3957,-0.44049 -4.4439,-0.80535 -7.4143,-1.3208 -10.0746,-2.67142 -11.5068,-5.84189 l -0.7693,-1.70298 v -18.4 -18.4 l 10.4,-0.20096 c 11.0293,-0.21312 15.0711,-0.60043 21.7349,-2.08275 6.7061,-1.49175 13.7844,-4.46489 18.4555,-7.752 7.9488,-5.59367 12.6931,-13.44355 13.8549,-22.9243 1.8463,-15.06641 -3.8208,-25.47058 -16.8218,-30.88291 -4.8801,-2.03161 -12.2946,-3.55019 -20.2635,-4.15024 -2.5529,-0.19223 -18.7557,-0.32561 -39.6112,-0.32607 l -35.2912,-7.8e-4 0.091,3.24116 0.091,3.24117 4.5432,0.91373 c 9.0847,1.82716 11.6697,3.56175 12.5522,8.42272 0.2353,1.29651 0.3425,15.55697 0.338,44.96 -0.01,45.01554 -0.028,45.76175 -1.3646,47.80112 -1.5238,2.32572 -4.5299,3.53524 -10.5464,4.2435 -6.3846,0.75159 -5.6824,0.25938 -5.6824,3.9827 v 3.19391 h 32.48 32.48 z m -17.6,-82.76082 v -26.43472 l 7.12,0.14953 c 5.9396,0.12474 7.5444,0.26309 9.68,0.83448 8.3898,2.24476 12.4499,6.92339 14.6186,16.84543 0.2714,1.24167 0.4178,4.23765 0.4143,8.48 -0.01,7.00398 -0.3813,9.36929 -2.1112,13.30022 -3.8134,8.66515 -13.0047,13.24572 -26.6017,13.25716 l -3.12,0.003 z m 252.48,82.76923 v -3.1855 l -1.04,-0.16481 c -0.572,-0.0906 -2.624,-0.3993 -4.56,-0.68592 -5.4332,-0.80435 -8.2142,-1.79822 -10.0718,-3.59948 -2.7602,-2.67656 -2.5682,1.01464 -2.5682,-49.36317 0,-43.29685 0.015,-44.43852 0.632,-46.43438 0.3773,-1.22155 0.9899,-2.38888 1.52,-2.89655 1.8008,-1.7245 5.3857,-2.81694 11.288,-3.4399 5.3208,-0.56158 4.8,-0.14381 4.8,-3.85089 v -3.19391 h -33.28 -33.28 v 3.19391 c 0,3.62215 -0.4277,3.1546 3.52,3.84767 3.1301,0.54954 8.076,1.83656 9.6494,2.51099 3.0777,1.31928 4.534,3.33049 5.0636,6.99332 0.4175,2.8876 0.4175,85.16457 0,88.3811 -0.5049,3.88994 -2.1767,5.94805 -5.8427,7.19268 -0.8122,0.27574 -3.4643,0.65908 -5.8935,0.85186 -2.4292,0.19278 -4.8848,0.41958 -5.4568,0.50399 l -1.04,0.15349 v 3.1855 3.1855 h 33.28 33.28 z m 387.9754,1.5055 c 0.1,-0.924 0.6151,-9.096 1.1452,-18.16 0.5301,-9.064 1.0059,-16.948 1.0574,-17.52 l 0.093,-1.04 h -3.1358 c -2.2046,0 -3.1357,0.11266 -3.1357,0.37945 0,0.73411 -5.0962,10.70795 -7.5738,14.82278 -4.4397,7.37342 -8.0387,11.63791 -10.9924,13.02514 -3.6936,1.7347 -9.9141,2.49263 -20.4578,2.49263 -7.725,0 -11.3522,-0.34527 -14.038,-1.33625 -2.4069,-0.88804 -4.3338,-2.86189 -5.0111,-5.13315 -1.0418,-3.49374 -1.1617,-9.18718 -1.0629,-50.4906 0.092,-38.33001 0.1323,-40.88924 0.6712,-42.27399 0.6243,-1.60426 2.0716,-3.26627 3.4774,-3.99323 1.2672,-0.65531 5.667,-1.62751 9.2274,-2.03895 1.672,-0.19322 3.508,-0.4259 4.08,-0.51707 l 1.04,-0.16577 v -3.1855 -3.1855 h -32.9712 -32.9712 l 0.091,3.26185 0.091,3.26184 3.04,0.54211 c 8.2243,1.46659 12.1544,3.30423 13.558,6.33949 l 0.682,1.47471 v 45.44001 c 0,49.86006 0.1215,46.81822 -1.9613,49.12357 -1.6208,1.79405 -3.6918,2.52632 -9.2086,3.25608 -2.6566,0.35141 -5.1541,0.70048 -5.5501,0.77573 -0.6894,0.131 -0.72,0.27239 -0.72,3.33071 v 3.19391 h 55.177 55.177 z m 328.8246,-1.51391 c 0,-3.05822 -0.031,-3.19973 -0.72,-3.33104 -0.396,-0.0754 -2.4282,-0.37364 -4.516,-0.66269 -6.3468,-0.87869 -10.4122,-2.52127 -11.9143,-4.81381 -1.0184,-1.55418 -0.5222,-5.35788 1.4815,-11.35855 1.1915,-3.56807 4.7754,-13.25197 5.715,-15.44234 l 0.6531,-1.52234 20.7304,0.0823 20.7303,0.0823 5.3841,13.06412 c 2.9612,7.18527 5.4628,13.54945 5.559,14.14263 0.2888,1.77983 -0.1054,2.64023 -1.5469,3.37561 -1.4332,0.73116 -6.6284,1.9642 -10.6762,2.53388 -1.408,0.19817 -3.028,0.43061 -3.6,0.51653 l -1.04,0.15623 v 3.1855 3.1855 h 32.64 32.64 v -3.16577 c 0,-3.43272 -0.065,-3.55423 -1.9051,-3.55423 -1.3281,0 -6.7771,-1.44527 -8.2152,-2.17897 -2.2628,-1.15439 -4.7338,-3.22553 -6.2759,-5.26034 -1.8438,-2.43293 -4.6175,-9.0359 -21.1995,-50.46761 -6.3777,-15.9352 -14.1556,-35.2754 -17.2843,-42.97823 l -5.6885,-14.00514 -8.4907,0.0851 -8.4907,0.0851 -5.5717,13.44 c -3.0644,7.392 -12.5585,30.36001 -21.0978,51.04001 -8.5394,20.68 -15.9635,38.37271 -16.4981,39.31714 -2.3061,4.07409 -6.5507,7.88419 -10.3793,9.31662 -0.9581,0.35849 -3.1373,0.87979 -4.8426,1.15845 -1.7053,0.27865 -3.4246,0.56815 -3.8206,0.64331 -0.6894,0.13087 -0.72,0.27221 -0.72,3.33057 v 3.19391 h 24.48 24.48 z m -5.76,-45.48226 c 0,-0.28834 14.8583,-38.2172 16.533,-42.20384 l 0.4705,-1.12 8.6094,21.44001 c 4.7352,11.792 8.6134,21.62 8.6183,21.84 0.01,0.31512 -3.6238,0.4 -17.1112,0.4 -12.3588,0 -17.12,-0.0991 -17.12,-0.35617 z m -525.12,-80.38735 c 4.136,-1.67135 11.84,-4.6455 17.12,-6.60922 11.0718,-4.11777 14.1286,-5.50516 16.2564,-7.37811 1.9025,-1.67461 2.7349,-3.26916 2.9923,-5.73169 0.1734,-1.65923 0.088,-2.13939 -0.6524,-3.65198 -1.3977,-2.85673 -4.5471,-4.72599 -9.0128,-5.34926 -4.1618,-0.58087 -7.2884,0.0816 -10.6552,2.25763 -1.0625,0.68676 -3.8673,3.27306 -6.3127,5.821 -2.4204,2.52183 -8.0696,8.20687 -12.5539,12.63342 l -8.1533,8.04828 1.3855,1.64307 c 0.762,0.90368 1.5386,1.5784 1.7258,1.49937 0.1872,-0.079 3.7243,-1.51116 7.8603,-3.18251 z m -65.76,-134.95402 c 10.8626,-0.93613 20.287,-4.23718 29.3029,-10.26382 6.6711,-4.45923 10.5162,-8.61396 13.1259,-14.18286 2.7703,-5.91164 3.5912,-11.53374 3.4364,-23.53579 -0.094,-7.26417 -0.044,-8.27131 0.4495,-9.17388 0.7173,-1.31105 3.307,-2.56403 5.8453,-2.82823 4.4587,-0.46407 8.48,-2.41716 8.48,-4.11854 0,-1.26707 -1.7117,-3.4677 -6.1566,-7.91524 -3.403,-3.4049 -4.4368,-4.64128 -4.7472,-5.67757 -0.8499,-2.83664 0.9644,-3.19699 8.9528,-1.77826 3.4242,0.60814 5.4586,0.79951 7.6541,0.72 2.9159,-0.10559 3.0134,-0.13424 3.9236,-1.15333 1.1621,-1.30124 1.2466,-3.21392 0.2741,-6.20644 -1.0305,-3.17094 -1.172,-7.07252 -0.3541,-9.76516 1.2791,-4.21114 4.5618,-8.09921 9.536,-11.29455 3.3598,-2.15829 6.7187,-3.41033 11.7184,-4.36816 4.7246,-0.90513 6.8687,-1.62965 8.9995,-3.04099 4.2196,-2.79495 4.3399,-8.09152 0.3443,-15.15965 -3.6049,-6.37703 -5.5422,-11.40768 -7.7636,-20.16 -2.4292,-9.57099 -4.421,-20.84914 -6.1318,-34.72001 -0.8527,-6.91417 -2.2688,-20.60132 -2.1378,-20.6626 0.027,-0.0124 2.5418,-0.99942 5.5895,-2.1933 7.0081,-2.7454 15.854,-7.14013 20.2852,-10.07784 6.9667,-4.6188 14.0121,-12.60567 17.9097,-20.30318 l 0.9504,-1.87691 -2.6632,2.30709 c -5.1885,4.49461 -9.8754,7.65879 -13.3604,9.01974 -2.1895,0.85506 -7.4785,1.13965 -11.6643,0.62763 -3.044,-0.37234 -7.8786,-1.56562 -7.8786,-1.94461 0,-0.12862 0.7346,-1.44485 1.6324,-2.92494 2.5146,-4.14547 7.6924,-14.90647 9.9943,-20.77108 12.9852,-33.0833 15.5805,-69.51439 7.386,-103.68 -8.4064,-35.0491 -27.2846,-68.00364 -57.2854,-100 -15.8908,-16.9478 -35.9975,-31.12541 -57.1298,-40.28331 -45.711,-19.80931 -102.9899,-19.42667 -164.5068,1.09896 -19.714,6.57773 -42.655,16.52122 -57.4027,24.88046 l -2.9121,1.6506 -0.206,2.64665 c -0.3177,4.08097 -0.245,18.76563 0.1176,23.76664 3.6957,50.97181 23.5603,102.36968 57.3853,148.48 20.9385,28.54343 46.827,54.66185 73.6472,74.30126 19.9636,14.61856 42.4479,27.0604 64.08,35.45911 1.276,0.49541 2.32,0.99414 2.32,1.10829 0,0.11415 -7.092,2.13205 -15.76,4.48423 -16.7734,4.55171 -16.6315,4.50038 -24.5564,8.88336 -20.7214,11.4604 -37.4553,23.7699 -52.4515,38.58358 -15.0353,14.85219 -25.815,29.62727 -34.5974,47.42018 -9.1907,18.62044 -14.1277,36.58059 -15.7012,57.12 -0.3924,5.12161 -0.2257,17.94376 0.2548,19.60069 l 0.2554,0.8807 2.6514,-1.77518 c 8.269,-5.5361 18.7499,-10.32643 29.3449,-13.4121 12.0129,-3.49859 22.8211,-4.89422 35.3209,-4.56087 10.6202,0.28323 19.1982,1.61192 29.1795,4.51976 8.1692,2.37994 13.6243,4.61947 23.6596,9.7133 19.1001,9.69501 36.1208,13.84948 51.36,12.53617 z m 270.1136,0.0108 c 13.398,-1.06083 25.5525,-4.90032 42.4507,-13.40972 14.4394,-7.27126 26.6645,-11.04728 41.6757,-12.87265 4.632,-0.56324 19.9826,-0.57204 24.48,-0.014 19.364,2.40255 36.5575,8.58154 50.88,18.28517 l 1.44,0.97561 0.2133,-1.35883 c 0.8433,-5.37302 0.5816,-18.02963 -0.5606,-27.11884 -3.1393,-24.97969 -12.7348,-49.46383 -27.857,-71.08059 -18.1999,-26.0164 -44.7731,-48.50188 -78.5244,-66.44529 -3.575,-1.90062 -4.1816,-2.09577 -19.68,-6.33153 -8.7952,-2.40376 -16.1065,-4.44019 -16.2474,-4.52541 -0.1409,-0.0852 2.2019,-1.14753 5.2063,-2.36071 43.5921,-17.60277 83.6728,-47.30698 118.2013,-87.60025 27.2337,-31.7805 48.0501,-67.57066 60.5214,-104.05623 7.6665,-22.42876 12.2155,-44.94861 13.6388,-67.52 0.364,-5.77114 0.2297,-22.46087 -0.1918,-23.84811 -0.2328,-0.76609 -5.4113,-3.64147 -15.6799,-8.70629 -33.8651,-16.70344 -71.6286,-28.23448 -105.5194,-32.22027 -10.0994,-1.18776 -14.148,-1.46464 -24.5606,-1.67962 -41.8445,-0.86394 -78.013,9.53693 -109.2903,31.42828 -16.415,11.48905 -32.6898,27.89292 -47.8904,48.27011 -22.173,29.7242 -35.6264,61.40695 -39.6243,93.3159 -1.0369,8.27526 -1.2683,12.24042 -1.2701,21.76 0,18.41794 2.3338,34.0848 7.6845,51.51155 3.4033,11.08424 9.0718,24.21257 14.0277,32.48845 2.2638,3.78014 2.3267,3.63323 -1.9934,4.65575 -4.1809,0.98957 -11.5058,1.2379 -14.1308,0.47908 -3.9941,-1.15462 -9.6974,-4.80971 -15.2196,-9.75384 l -2.2651,-2.02803 1.1273,2.2386 c 2.6747,5.31127 7.6052,11.6608 12.3777,15.94024 5.384,4.82774 14.1573,9.62918 26.4335,14.46643 l 4.5933,1.80994 v 1.17462 c 0,1.69541 -1.4531,15.40272 -2.4061,22.69721 -2.9778,22.79225 -6.9819,39.36909 -11.5944,48.00001 -5.0876,9.52018 -5.7963,12.2575 -4.1108,15.87745 1.373,2.94871 4.3276,4.51434 11.1541,5.91049 5.4858,1.12194 6.1019,1.31512 9.3572,2.93362 9.5802,4.76316 14.5534,12.89858 12.476,20.4087 -1.6782,6.06704 -1.6275,7.81208 0.2603,8.96314 1.4686,0.89545 5.627,0.83084 11.2472,-0.17476 5.6034,-1.00259 7.6189,-1.03628 8.5129,-0.14227 1.2456,1.24562 0.2669,2.91043 -4.366,7.42645 -5.4297,5.29276 -6.8264,7.44814 -5.9218,9.13838 0.6078,1.13583 4.0611,2.58199 7.0714,2.96142 1.496,0.18856 3.1917,0.48898 3.7682,0.6676 1.3334,0.41317 2.9086,1.73232 3.3452,2.80141 0.2155,0.52762 0.3145,4.04023 0.2727,9.67501 -0.038,5.08306 0.086,9.98396 0.2898,11.52 1.2241,9.20573 5.1481,16.65959 11.449,21.74816 11.0436,8.91868 23.9882,13.62184 38.5087,13.99141 1.1624,0.0296 3.9704,-0.0932 6.24,-0.27293 z"
       id="path1" />
  </g>
</svg>
